{"glyphs":{"0":{"ha":778,"x_min":54,"x_max":722,"o":"m 388 932 q 137 823 219 932 q 54 452 54 714 q 138 88 54 190 q 389 -14 222 -14 q 639 90 556 -14 q 722 444 722 193 q 572 889 722 800 q 388 932 501 932 m 389 836 q 560 752 508 836 q 613 453 613 668 q 558 160 613 239 q 389 81 504 81 q 219 159 274 81 q 165 443 165 238 q 264 803 165 735 q 389 836 310 836 "},"1":{"ha":778,"x_min":149,"x_max":540,"o":"m 540 917 l 440 917 l 149 722 l 197 642 l 433 797 l 433 0 l 540 0 l 540 917 "},"2":{"ha":778,"x_min":96,"x_max":682,"o":"m 682 0 l 682 93 l 222 93 l 467 342 q 615 515 572 443 q 658 685 658 588 q 587 872 658 813 q 375 931 515 931 q 103 893 235 931 l 111 804 l 147 811 q 349 835 258 835 q 500 799 451 835 q 549 674 549 763 q 523 571 549 622 q 465 482 497 519 q 364 372 433 444 l 96 90 l 96 0 l 682 0 "},"3":{"ha":778,"x_min":86,"x_max":685,"o":"m 100 893 l 110 808 l 146 815 q 365 836 254 836 q 510 802 467 836 q 553 692 553 768 q 499 569 553 615 q 386 522 444 522 l 201 522 l 201 431 l 386 431 q 575 258 575 424 q 376 81 575 82 q 96 111 246 81 l 86 24 l 129 14 q 388 -14 265 -14 q 613 54 542 -14 q 685 263 685 122 q 646 410 685 365 q 526 485 607 456 l 542 494 q 590 528 560 504 q 617 557 607 542 q 645 601 628 572 q 663 693 663 629 q 596 875 663 818 q 380 932 529 932 q 100 893 231 932 "},"4":{"ha":778,"x_min":56,"x_max":724,"o":"m 500 0 l 607 0 l 607 179 l 724 179 l 724 274 l 607 274 l 607 560 l 500 560 l 500 274 l 168 274 l 433 917 l 317 917 l 56 263 l 56 179 l 500 179 l 500 0 "},"5":{"ha":778,"x_min":88,"x_max":699,"o":"m 663 917 l 128 917 l 103 440 l 176 426 l 206 440 q 290 468 235 454 q 394 482 344 482 q 538 440 488 482 q 589 296 589 397 q 533 138 589 194 q 369 82 478 82 q 100 113 260 82 l 88 28 l 133 18 q 392 -12 275 -12 q 618 69 538 -12 q 699 307 699 151 q 407 578 699 578 q 192 521 299 578 l 217 819 l 663 819 l 663 917 "},"6":{"ha":778,"x_min":69,"x_max":718,"o":"m 669 819 l 679 907 l 642 914 q 428 931 540 931 q 163 817 257 931 q 69 463 69 703 q 397 -14 69 -14 q 634 65 550 -14 q 718 289 718 143 q 410 574 718 574 q 308 560 365 574 q 215 533 250 546 l 181 519 q 244 754 181 672 q 426 836 308 836 q 669 819 544 836 m 403 478 q 553 431 500 478 q 607 285 607 383 q 553 134 607 188 q 392 81 499 81 q 233 174 285 81 q 179 425 181 267 l 211 439 q 299 465 243 451 q 403 478 356 478 "},"7":{"ha":778,"x_min":107,"x_max":676,"o":"m 107 819 l 568 819 l 568 783 l 222 18 l 324 -14 l 676 776 l 676 917 l 107 917 l 107 819 "},"8":{"ha":778,"x_min":44,"x_max":732,"o":"m 147 872 q 60 694 60 811 q 94 565 60 613 q 203 479 128 517 q 83 383 121 435 q 44 233 44 332 q 388 -14 44 -14 q 732 249 732 -14 q 690 391 732 340 q 565 479 649 442 q 683 562 649 517 q 718 693 718 607 q 628 872 718 811 q 386 932 539 932 q 190 902 233 932 q 147 872 147 872 m 158 251 q 196 366 158 325 q 310 428 233 407 l 456 428 q 577 369 536 404 q 618 260 618 333 q 388 83 618 83 q 158 251 158 83 m 604 681 q 567 582 604 619 q 456 521 531 544 l 310 521 q 207 583 240 546 q 174 682 174 621 q 389 835 174 835 q 604 681 604 835 "},"9":{"ha":778,"x_min":57,"x_max":707,"o":"m 343 81 q 101 97 226 81 l 92 11 l 128 6 q 343 -14 239 -14 q 615 93 522 -14 q 707 441 707 200 q 625 806 707 682 q 375 931 543 931 q 143 849 229 931 q 57 626 57 767 q 357 347 57 347 q 596 400 457 347 q 343 81 594 81 m 365 442 q 168 626 168 442 q 223 780 168 724 q 375 836 278 836 q 597 492 593 836 l 561 479 q 365 442 450 442 "}," ":{"ha":306,"x_min":0,"x_max":0,"o":""},"!":{"ha":343,"x_min":115,"x_max":229,"o":"m 115 0 l 229 0 l 229 156 l 115 156 l 115 0 m 124 317 l 219 317 l 226 961 l 117 961 l 124 317 "},"\"":{"ha":518,"x_min":92,"x_max":426,"o":"m 421 653 l 426 961 l 322 961 l 328 653 l 421 653 m 190 653 l 196 961 l 92 961 l 97 653 l 190 653 "},"#":{"ha":778,"x_min":33,"x_max":744,"o":"m 744 242 l 744 331 l 590 331 l 590 589 l 744 589 l 744 678 l 590 678 l 590 925 l 496 925 l 496 678 l 282 678 l 282 925 l 188 925 l 188 678 l 33 678 l 33 589 l 188 589 l 188 331 l 33 331 l 33 242 l 188 242 l 188 0 l 282 0 l 282 242 l 496 242 l 496 0 l 590 0 l 590 242 l 744 242 m 496 331 l 282 331 l 282 589 l 496 589 l 496 331 "},"$":{"ha":778,"x_min":96,"x_max":686,"o":"m 686 269 q 631 431 686 381 q 440 513 575 481 l 482 836 q 658 818 563 829 l 667 904 l 493 925 l 517 1108 l 446 1108 l 422 929 q 390 931 411 931 q 96 685 96 931 q 156 513 96 565 q 358 428 217 461 l 313 81 q 114 101 221 86 l 103 17 l 301 -8 l 282 -162 q 353 -172 282 -168 l 372 -12 l 393 -12 q 686 269 686 -12 m 199 690 q 397 840 199 840 l 411 840 l 371 528 q 236 583 274 551 q 199 690 199 615 m 583 263 q 388 78 583 78 l 385 78 l 428 414 q 549 361 514 393 q 583 263 583 329 "},"%":{"ha":778,"x_min":39,"x_max":739,"o":"m 215 -6 l 282 -25 l 567 924 l 500 946 l 215 -6 m 39 739 q 79 592 39 640 q 192 543 119 543 q 304 592 264 543 q 344 739 344 640 q 192 931 344 931 q 39 739 39 931 m 124 739 q 140 831 124 801 q 192 860 156 860 q 245 831 229 860 q 261 739 261 801 q 192 614 261 614 q 124 739 124 614 m 435 183 q 474 35 435 85 q 586 -14 514 -14 q 699 35 658 -14 q 739 182 739 85 q 587 374 739 374 q 435 183 435 374 m 518 183 q 534 274 518 246 q 588 303 550 303 q 640 274 625 303 q 656 182 656 246 q 640 88 656 118 q 586 57 625 57 q 518 183 518 57 "},"&":{"ha":956,"x_min":58,"x_max":929,"o":"m 194 769 q 210 661 194 704 q 274 563 225 618 q 109 463 160 525 q 58 269 58 401 q 136 61 58 136 q 408 -14 214 -14 q 699 144 603 -14 l 867 -12 l 929 57 l 750 226 q 814 515 796 342 l 713 517 q 674 292 704 381 l 463 500 q 628 610 579 554 q 676 765 676 667 q 616 918 676 863 q 439 974 556 974 q 258 918 322 974 q 194 769 194 863 m 392 81 q 164 281 164 81 q 203 422 164 376 q 333 497 242 468 l 626 206 q 392 81 563 81 m 299 753 q 435 883 299 883 q 572 756 572 883 q 535 644 572 685 q 401 563 497 604 l 361 601 q 299 753 299 668 "},"'":{"ha":289,"x_min":93,"x_max":197,"o":"m 97 653 l 190 653 l 197 961 l 93 961 l 97 653 "},"(":{"ha":367,"x_min":71,"x_max":315,"o":"m 215 -174 l 315 -174 l 283 -85 q 217 152 250 4 q 183 419 183 300 q 225 726 183 538 q 315 1042 267 914 l 215 1042 l 179 953 q 107 708 143 864 q 71 418 71 551 q 215 -174 71 151 "},")":{"ha":367,"x_min":51,"x_max":296,"o":"m 281 599 q 151 1042 243 835 l 51 1042 l 85 944 q 151 693 118 849 q 183 419 183 538 q 141 119 183 300 q 51 -174 99 -62 l 151 -174 l 188 -92 q 260 137 224 -11 q 296 393 296 285 q 281 599 296 501 "},"*":{"ha":583,"x_min":75,"x_max":518,"o":"m 518 710 l 518 779 l 338 779 l 393 956 l 325 978 l 268 803 l 121 911 l 78 853 l 225 746 l 75 636 l 118 581 l 267 690 l 324 515 l 392 536 l 335 710 l 518 710 "},"+":{"ha":778,"x_min":76,"x_max":701,"o":"m 76 301 l 339 301 l 339 28 l 436 28 l 436 301 l 701 301 l 701 396 l 436 396 l 436 667 l 339 667 l 339 396 l 76 396 l 76 301 "},",":{"ha":310,"x_min":47,"x_max":226,"o":"m 47 -171 l 133 -171 l 226 149 l 111 149 l 47 -171 "},"-":{"ha":608,"x_min":94,"x_max":515,"o":"m 94 333 l 515 333 l 515 431 l 94 431 l 94 333 "},".":{"ha":300,"x_min":93,"x_max":207,"o":"m 93 0 l 207 0 l 207 158 l 93 158 l 93 0 "},"/":{"ha":572,"x_min":44,"x_max":529,"o":"m 44 14 l 138 -19 l 529 949 l 436 983 l 44 14 "},":":{"ha":301,"x_min":93,"x_max":207,"o":"m 93 447 l 207 447 l 207 606 l 93 606 l 93 447 m 93 0 l 207 0 l 207 158 l 93 158 l 93 0 "},";":{"ha":344,"x_min":67,"x_max":246,"o":"m 129 149 l 67 -171 l 153 -171 l 246 149 l 129 149 m 122 447 l 235 447 l 235 606 l 122 606 l 122 447 "},"<":{"ha":778,"x_min":85,"x_max":663,"o":"m 663 568 l 663 676 l 85 394 l 85 303 l 663 18 l 663 128 l 192 350 l 663 568 "},"=":{"ha":778,"x_min":89,"x_max":689,"o":"m 89 429 l 689 429 l 689 525 l 89 525 l 89 429 m 89 172 l 689 172 l 689 268 l 89 268 l 89 172 "},">":{"ha":778,"x_min":114,"x_max":692,"o":"m 585 350 l 114 128 l 114 18 l 692 303 l 692 394 l 114 676 l 114 568 l 585 350 "},"?":{"ha":621,"x_min":51,"x_max":564,"o":"m 564 753 q 495 923 564 871 q 283 975 426 975 q 51 933 192 975 l 58 849 l 94 856 q 274 881 213 881 q 414 849 369 881 q 458 752 458 817 q 435 651 458 688 q 340 554 411 615 q 238 452 269 493 q 206 364 206 411 q 224 279 206 317 l 311 279 l 311 328 q 339 409 311 372 q 441 508 367 446 q 540 616 515 569 q 564 753 564 663 m 208 1 l 322 1 l 322 157 l 208 157 l 208 1 "},"@":{"ha":1357,"x_min":71,"x_max":1296,"o":"m 1296 424 q 1153 862 1296 719 q 700 1004 1010 1004 q 231 851 390 1004 q 71 363 71 697 q 233 -147 71 -6 q 427 -251 315 -221 q 700 -282 539 -282 q 903 -269 772 -282 l 899 -176 l 700 -190 q 299 -65 421 -190 q 176 355 176 60 q 305 781 176 650 q 698 913 433 913 q 1076 797 963 913 q 1190 425 1190 682 l 1190 406 q 1172 189 1190 263 q 1128 97 1154 115 q 1065 79 1103 79 q 1013 82 1028 79 q 984 100 997 85 q 964 133 971 115 q 949 422 949 179 l 949 688 l 844 688 l 844 665 l 819 675 q 685 701 744 701 q 466 613 529 701 q 403 324 403 525 q 481 53 403 122 q 558 6 519 18 q 647 -7 596 -7 q 889 75 753 -7 q 935 21 901 46 q 983 0 951 8 q 1058 -8 1014 -8 q 1135 0 1101 -8 q 1203 35 1169 8 q 1296 406 1296 111 l 1296 424 m 654 85 q 508 339 508 85 q 549 546 508 482 q 701 610 589 610 q 844 582 761 610 l 844 389 q 857 149 844 224 q 654 85 714 85 "},"A":{"ha":828,"x_min":33,"x_max":794,"o":"m 33 0 l 139 0 l 208 247 l 619 247 l 689 0 l 794 0 l 531 961 l 297 961 l 33 0 m 378 869 l 450 869 l 596 343 l 232 343 l 378 869 "},"B":{"ha":856,"x_min":118,"x_max":782,"o":"m 118 961 l 118 0 l 485 0 q 706 63 629 0 q 782 269 782 125 q 629 496 782 443 q 722 576 690 525 q 753 717 753 626 q 681 902 753 843 q 467 961 610 961 l 118 961 m 474 442 q 600 414 539 442 q 653 363 633 399 q 674 274 674 326 q 624 134 674 174 q 481 94 575 94 l 225 94 l 225 442 l 474 442 m 463 867 q 599 828 556 867 q 643 705 643 790 q 602 577 643 619 q 472 535 561 535 l 225 535 l 225 867 l 463 867 "},"C":{"ha":756,"x_min":82,"x_max":699,"o":"m 699 15 l 694 107 q 463 82 561 82 q 315 105 365 82 q 238 181 264 128 q 202 301 211 235 q 193 478 193 368 q 242 788 193 697 q 444 879 292 879 q 694 854 554 879 l 699 944 q 438 975 549 975 q 257 944 326 975 q 149 847 188 914 q 97 694 111 781 q 82 479 82 607 q 97 266 82 351 q 149 115 111 181 q 258 17 188 49 q 442 -14 328 -14 q 699 15 556 -14 "},"D":{"ha":896,"x_min":118,"x_max":817,"o":"m 461 0 q 636 38 564 0 q 817 494 817 132 q 772 775 817 668 q 461 961 696 961 l 118 961 l 118 0 l 461 0 m 707 494 q 461 94 707 94 l 225 94 l 225 867 l 461 867 q 583 839 533 867 q 707 494 707 771 "},"E":{"ha":768,"x_min":118,"x_max":703,"o":"m 118 0 l 703 0 l 703 94 l 225 94 l 225 442 l 619 442 l 619 535 l 225 535 l 225 867 l 703 867 l 703 961 l 118 961 l 118 0 "},"F":{"ha":731,"x_min":118,"x_max":693,"o":"m 118 0 l 225 0 l 225 397 l 621 397 l 621 492 l 225 492 l 225 867 l 693 867 l 693 961 l 118 961 l 118 0 "},"G":{"ha":856,"x_min":79,"x_max":764,"o":"m 499 396 l 658 396 l 658 100 q 460 81 557 81 q 246 173 301 81 q 190 480 190 265 q 246 787 190 694 q 461 879 301 879 q 760 850 588 879 l 764 939 l 717 947 q 449 975 578 975 q 160 853 242 975 q 79 480 79 732 q 160 107 79 228 q 451 -14 242 -14 q 764 19 589 -14 l 764 492 l 499 492 l 499 396 "},"H":{"ha":938,"x_min":118,"x_max":819,"o":"m 714 0 l 819 0 l 819 961 l 714 961 l 714 531 l 225 531 l 225 961 l 118 961 l 118 0 l 225 0 l 225 435 l 714 435 l 714 0 "},"I":{"ha":342,"x_min":118,"x_max":225,"o":"m 118 0 l 225 0 l 225 961 l 118 961 l 118 0 "},"J":{"ha":401,"x_min":25,"x_max":289,"o":"m 25 -100 q 124 -96 86 -100 q 250 -39 218 -85 q 289 132 289 15 l 288 961 l 182 961 l 182 147 q 153 20 182 44 q 25 -4 125 -4 l 25 -100 "},"K":{"ha":790,"x_min":118,"x_max":767,"o":"m 225 0 l 225 419 l 385 425 l 640 0 l 767 0 l 476 478 l 751 961 l 629 961 l 383 519 l 225 514 l 225 961 l 118 961 l 118 0 l 225 0 "},"L":{"ha":665,"x_min":118,"x_max":647,"o":"m 647 0 l 647 96 l 225 96 l 225 961 l 118 961 l 118 0 l 647 0 "},"M":{"ha":1167,"x_min":118,"x_max":1049,"o":"m 118 0 l 225 0 l 225 847 l 244 847 l 524 35 l 643 35 l 922 847 l 942 847 l 942 0 l 1049 0 l 1049 961 l 856 961 l 583 149 l 311 961 l 118 961 l 118 0 "},"N":{"ha":939,"x_min":118,"x_max":821,"o":"m 118 0 l 225 0 l 225 867 l 251 867 l 625 0 l 821 0 l 821 961 l 715 961 l 715 94 l 686 94 l 318 961 l 118 961 l 118 0 "},"O":{"ha":917,"x_min":79,"x_max":839,"o":"m 189 476 q 245 784 189 688 q 458 881 301 881 q 671 783 614 881 q 728 474 728 686 q 673 171 728 261 q 459 81 618 81 q 244 173 300 81 q 189 371 189 265 q 189 476 189 476 m 839 474 q 755 853 839 731 q 458 975 671 975 q 163 852 246 975 q 79 476 79 729 q 161 104 79 222 q 459 -14 243 -14 q 757 101 675 -14 q 839 345 839 217 q 839 474 839 474 "},"P":{"ha":824,"x_min":118,"x_max":776,"o":"m 469 324 q 776 651 776 324 q 701 885 776 808 q 469 961 626 961 l 118 961 l 118 0 l 225 0 l 225 324 l 469 324 m 225 418 l 225 867 l 468 867 q 619 815 572 867 q 667 651 667 763 q 468 418 667 418 l 225 418 "},"Q":{"ha":917,"x_min":79,"x_max":839,"o":"m 458 -14 q 575 -1 529 -14 l 697 -201 l 797 -154 l 679 36 q 803 194 767 88 q 839 476 839 300 q 755 853 839 731 q 458 975 671 975 q 163 852 246 975 q 79 476 79 729 q 161 104 79 222 q 458 -14 243 -14 m 189 476 q 245 784 189 688 q 458 881 301 881 q 671 783 614 881 q 728 473 728 686 q 673 170 728 260 q 459 81 618 81 q 244 173 300 81 q 189 371 189 265 q 189 476 189 476 "},"R":{"ha":856,"x_min":118,"x_max":789,"o":"m 225 368 l 497 368 l 671 0 l 789 0 l 604 390 q 781 669 781 447 q 703 890 781 819 q 474 961 626 961 l 118 961 l 118 0 l 225 0 l 225 368 m 475 463 l 225 463 l 225 867 l 474 867 q 671 665 671 867 q 475 463 671 463 "},"S":{"ha":753,"x_min":67,"x_max":686,"o":"m 383 882 q 657 858 464 882 l 667 949 l 619 956 q 376 976 478 976 q 67 718 67 976 q 135 534 67 589 q 365 444 203 479 q 534 387 489 421 q 579 275 579 353 q 374 82 579 82 q 86 107 275 82 l 75 18 l 125 11 q 379 -12 278 -12 q 686 283 686 -12 q 625 455 686 403 q 417 540 564 507 q 223 605 271 572 q 175 725 175 638 q 383 882 175 882 "},"T":{"ha":731,"x_min":18,"x_max":713,"o":"m 18 865 l 314 865 l 314 0 l 419 0 l 419 865 l 713 865 l 713 961 l 18 961 l 18 865 "},"U":{"ha":894,"x_min":111,"x_max":783,"o":"m 218 289 l 218 961 l 111 961 l 111 292 q 195 58 111 131 q 446 -14 279 -14 q 698 58 613 -14 q 783 292 783 131 l 783 961 l 678 961 l 678 289 q 619 130 678 179 q 443 81 560 81 q 218 289 218 81 "},"V":{"ha":808,"x_min":33,"x_max":775,"o":"m 664 961 l 443 94 l 365 94 l 144 961 l 33 961 l 285 0 l 524 0 l 775 961 l 664 961 "},"W":{"ha":1231,"x_min":42,"x_max":1188,"o":"m 42 961 l 238 0 l 433 0 l 615 821 l 797 0 l 993 0 l 1188 961 l 1078 961 l 914 94 l 874 94 l 678 953 l 553 953 l 357 94 l 317 94 l 153 961 l 42 961 "},"X":{"ha":775,"x_min":26,"x_max":750,"o":"m 147 961 l 26 961 l 324 471 l 26 0 l 142 0 l 388 399 l 629 0 l 750 0 l 454 474 l 750 961 l 635 961 l 390 550 l 147 961 "},"Y":{"ha":747,"x_min":14,"x_max":733,"o":"m 428 0 l 428 404 l 733 961 l 613 961 l 374 511 l 135 961 l 14 961 l 321 404 l 321 0 l 428 0 "},"Z":{"ha":744,"x_min":60,"x_max":685,"o":"m 60 867 l 561 867 l 561 836 l 60 122 l 60 -1 l 685 -1 l 685 94 l 182 94 l 182 122 l 685 836 l 685 961 l 60 961 l 60 867 "},"[":{"ha":457,"x_min":110,"x_max":401,"o":"m 401 1040 l 110 1040 l 110 -171 l 401 -171 l 401 -78 l 215 -78 l 215 947 l 401 947 l 401 1040 "},"\\":{"ha":606,"x_min":42,"x_max":563,"o":"m 563 19 l 135 982 l 42 942 l 469 -19 l 563 19 "},"]":{"ha":457,"x_min":56,"x_max":347,"o":"m 56 947 l 242 947 l 242 -78 l 56 -78 l 56 -171 l 347 -171 l 347 1040 l 56 1040 l 56 947 "},"^":{"ha":778,"x_min":81,"x_max":696,"o":"m 585 443 l 696 443 l 431 917 l 338 917 l 81 443 l 192 443 l 386 814 l 585 443 "},"_":{"ha":878,"x_min":142,"x_max":736,"o":"m 142 -128 l 142 -219 l 736 -219 l 736 -128 l 142 -128 "},"`":{"ha":328,"x_min":-1,"x_max":335,"o":"m 35 1028 l -1 939 l 306 821 l 335 892 l 35 1028 "},"a":{"ha":696,"x_min":56,"x_max":671,"o":"m 590 485 q 537 654 590 600 q 365 708 483 708 q 94 678 247 708 l 99 599 l 142 603 q 372 617 261 617 q 456 586 425 617 q 486 485 486 556 l 486 425 l 268 404 q 107 345 158 393 q 56 196 56 297 q 106 40 56 94 q 251 -14 156 -14 q 501 42 376 -14 q 667 -14 557 -14 l 671 68 q 590 129 594 78 l 590 485 m 163 201 q 190 290 163 260 q 281 326 218 321 l 486 346 l 486 117 l 454 106 q 268 74 363 74 q 163 201 163 74 "},"b":{"ha":731,"x_min":100,"x_max":660,"o":"m 407 708 q 203 660 308 708 l 203 997 l 100 997 l 100 1 l 139 -3 q 332 -14 274 -14 q 590 67 519 -14 q 660 349 660 149 q 603 628 660 549 q 407 708 547 708 m 331 79 q 203 86 293 79 l 203 575 l 231 585 q 396 615 315 615 q 519 556 485 615 q 554 350 554 497 q 510 141 554 203 q 331 79 467 79 "},"c":{"ha":606,"x_min":71,"x_max":550,"o":"m 360 708 q 138 628 204 708 q 71 351 71 549 q 133 69 71 153 q 357 -14 194 -14 q 550 6 421 -14 l 546 92 l 382 79 q 217 139 257 79 q 178 351 178 199 q 220 559 178 503 q 381 615 263 615 q 544 603 433 615 l 549 688 l 515 692 q 360 708 406 708 "},"d":{"ha":735,"x_min":69,"x_max":633,"o":"m 633 997 l 531 997 l 531 690 q 360 708 440 708 q 137 619 204 708 q 69 327 69 529 q 144 50 69 125 q 222 0 181 14 q 319 -14 264 -14 q 531 47 424 -14 l 531 0 l 633 0 l 633 997 m 225 125 q 176 342 176 181 q 218 551 176 483 q 365 618 260 618 q 531 601 442 618 l 531 131 l 503 118 q 426 92 475 106 q 337 79 376 79 q 272 89 297 79 q 225 125 247 99 "},"e":{"ha":701,"x_min":69,"x_max":639,"o":"m 572 86 q 362 78 465 78 q 217 133 258 78 q 175 304 175 189 l 633 304 l 639 383 q 569 630 639 551 q 360 708 500 708 q 69 343 69 708 q 132 73 69 160 q 344 -14 194 -14 q 615 8 457 -14 l 613 90 l 572 86 m 535 388 l 174 388 q 222 565 175 510 q 360 621 268 621 q 494 568 453 621 q 535 388 535 515 "},"f":{"ha":460,"x_min":42,"x_max":457,"o":"m 233 604 l 435 604 l 435 694 l 233 694 l 233 756 q 255 885 233 851 q 327 918 276 918 q 456 915 378 918 l 457 1001 l 317 1011 q 171 958 213 1011 q 129 757 129 904 l 129 694 l 42 694 l 42 604 l 129 604 l 129 0 l 233 0 l 233 604 "},"g":{"ha":714,"x_min":69,"x_max":688,"o":"m 368 -326 q 676 -106 676 -326 q 618 57 676 15 q 426 99 560 99 q 267 109 293 99 q 240 163 240 119 q 265 242 240 181 q 333 236 296 236 q 537 288 472 236 q 601 471 601 340 q 556 610 601 564 l 688 607 l 688 696 l 482 690 l 461 694 q 338 708 404 708 q 78 471 78 708 q 188 261 78 311 l 175 239 q 140 151 140 175 q 179 56 140 82 q 94 -24 119 11 q 69 -117 69 -60 q 135 -281 69 -236 q 368 -326 201 -326 m 172 -108 q 188 -44 172 -69 q 250 14 204 -19 l 400 7 q 536 -14 501 7 q 571 -106 571 -35 q 523 -208 571 -178 q 365 -239 475 -239 q 213 -210 254 -239 q 172 -108 172 -182 m 182 471 q 219 588 182 553 q 340 624 256 624 q 461 589 425 624 q 497 472 497 554 q 461 354 497 389 q 340 319 425 319 q 219 354 256 319 q 182 430 182 389 q 182 471 182 471 "},"h":{"ha":746,"x_min":100,"x_max":653,"o":"m 204 0 l 204 574 l 231 583 q 400 615 313 615 q 520 562 492 615 q 549 364 549 508 l 549 0 l 653 0 l 653 367 q 605 633 653 558 q 418 708 557 708 q 204 656 315 708 l 204 997 l 100 997 l 100 0 l 204 0 "},"i":{"ha":304,"x_min":100,"x_max":204,"o":"m 100 0 l 204 0 l 204 694 l 100 694 l 100 0 m 100 851 l 204 851 l 204 972 l 100 972 l 100 851 "},"j":{"ha":304,"x_min":-68,"x_max":204,"o":"m 101 18 q 71 -123 101 -79 q -68 -229 40 -167 l -26 -310 q 158 -175 113 -239 q 204 17 204 -111 l 204 694 l 101 694 l 101 18 m 101 851 l 204 851 l 204 972 l 101 972 l 101 851 "},"k":{"ha":665,"x_min":100,"x_max":639,"o":"m 204 0 l 204 318 l 314 322 l 521 0 l 639 0 l 403 375 l 629 694 l 511 694 l 313 414 l 204 408 l 204 997 l 100 997 l 100 0 l 204 0 "},"l":{"ha":321,"x_min":108,"x_max":213,"o":"m 108 0 l 213 0 l 213 997 l 108 997 l 108 0 "},"m":{"ha":1161,"x_min":100,"x_max":1068,"o":"m 204 0 l 204 564 l 228 576 q 299 602 253 589 q 390 615 346 615 q 509 562 482 615 q 536 358 536 508 l 536 0 l 640 0 l 640 361 q 622 564 640 518 l 649 576 q 724 602 675 589 q 818 615 772 615 q 936 562 908 615 q 964 364 964 508 l 964 0 l 1068 0 l 1068 367 q 1020 634 1068 560 q 833 708 972 708 q 705 687 778 708 q 586 638 632 665 q 406 708 535 708 q 203 646 307 708 l 203 694 l 100 694 l 100 0 l 204 0 "},"n":{"ha":746,"x_min":100,"x_max":653,"o":"m 204 0 l 204 564 l 231 576 q 306 602 257 589 q 400 615 356 615 q 522 562 493 615 q 550 364 550 508 l 550 0 l 653 0 l 653 367 q 605 633 653 558 q 418 708 557 708 q 203 646 315 708 l 203 694 l 100 694 l 100 0 l 204 0 "},"o":{"ha":733,"x_min":69,"x_max":664,"o":"m 69 349 q 133 72 69 158 q 367 -14 197 -14 q 600 72 536 -14 q 664 349 664 158 q 597 624 664 539 q 367 708 529 708 q 138 624 206 708 q 69 444 69 539 q 69 349 69 349 m 176 351 q 217 560 176 503 q 367 618 258 618 q 517 560 476 618 q 557 350 557 503 q 521 137 557 197 q 367 76 485 76 q 213 138 250 76 q 176 275 176 199 q 176 351 176 351 "},"p":{"ha":732,"x_min":100,"x_max":663,"o":"m 100 -308 l 204 -308 l 204 1 q 360 -14 275 -14 q 592 70 522 -14 q 663 347 663 154 q 603 624 663 540 q 411 708 543 708 q 203 644 308 708 l 203 694 l 100 694 l 100 -308 m 396 615 q 516 554 475 615 q 557 349 557 493 q 512 140 557 204 q 354 76 467 76 q 204 92 303 76 l 204 560 l 231 574 q 306 601 258 588 q 396 615 354 615 "},"q":{"ha":731,"x_min":69,"x_max":629,"o":"m 331 -14 q 526 32 429 -14 l 526 -308 l 629 -308 l 629 694 l 397 708 q 142 625 214 708 q 69 346 69 542 q 130 68 69 150 q 331 -14 190 -14 m 399 618 q 526 610 440 618 l 526 119 l 501 110 q 342 79 422 79 q 213 141 251 79 q 175 345 175 203 q 222 553 175 488 q 399 618 268 618 "},"r":{"ha":481,"x_min":100,"x_max":457,"o":"m 100 0 l 204 0 l 204 510 l 239 528 q 335 569 272 546 q 457 604 399 593 l 457 710 q 203 600 324 683 l 203 694 l 100 694 l 100 0 "},"s":{"ha":646,"x_min":63,"x_max":586,"o":"m 318 615 q 561 593 407 615 l 564 682 l 525 689 q 313 708 397 708 q 134 660 206 708 q 63 510 63 611 q 114 371 63 408 q 288 314 165 333 q 446 273 410 294 q 482 191 482 251 q 440 105 482 131 q 317 79 397 79 q 78 103 236 79 l 72 13 l 114 6 q 317 -14 231 -14 q 517 36 449 -14 q 586 193 586 86 q 535 339 586 300 q 360 399 483 378 q 201 441 236 421 q 167 510 167 461 q 318 615 167 615 "},"t":{"ha":488,"x_min":38,"x_max":469,"o":"m 460 604 l 460 694 l 239 694 l 239 907 l 136 907 l 136 694 l 38 694 l 38 604 l 136 604 l 136 239 q 178 38 136 90 q 328 -15 219 -15 q 469 0 376 -15 l 463 86 l 339 78 q 256 115 274 78 q 239 272 239 153 l 239 604 l 460 604 "},"u":{"ha":738,"x_min":93,"x_max":638,"o":"m 533 694 l 533 131 l 508 118 q 436 92 483 106 q 343 79 389 79 q 224 131 250 79 q 197 333 197 182 l 197 694 l 93 694 l 93 332 q 140 60 93 133 q 328 -14 186 -14 q 533 49 429 -14 l 533 0 l 638 0 l 638 694 l 533 694 "},"v":{"ha":668,"x_min":35,"x_max":635,"o":"m 35 694 l 231 0 l 439 0 l 635 694 l 528 694 l 360 90 l 308 90 l 146 694 l 35 694 "},"w":{"ha":1058,"x_min":43,"x_max":1015,"o":"m 43 694 l 208 0 l 382 0 l 529 543 l 676 0 l 850 0 l 1015 694 l 911 694 l 772 90 l 749 90 l 583 681 l 475 681 l 310 90 l 288 90 l 147 694 l 43 694 "},"x":{"ha":628,"x_min":31,"x_max":597,"o":"m 31 694 l 249 347 l 31 0 l 144 0 l 314 271 l 482 0 l 596 0 l 376 350 l 597 694 l 483 694 l 314 422 l 144 694 l 31 694 "},"y":{"ha":671,"x_min":35,"x_max":638,"o":"m 35 694 l 232 0 l 335 0 l 244 -308 l 349 -308 l 638 694 l 533 694 l 358 90 l 313 90 l 139 694 l 35 694 "},"z":{"ha":632,"x_min":58,"x_max":574,"o":"m 58 601 l 447 601 l 58 93 l 58 0 l 574 0 l 574 93 l 185 93 l 574 601 l 574 694 l 58 694 l 58 601 "},"{":{"ha":489,"x_min":33,"x_max":433,"o":"m 274 799 q 308 915 274 876 q 433 958 342 953 l 432 1049 q 231 988 290 1043 q 172 804 172 932 l 182 626 q 147 530 182 567 q 33 475 113 493 l 33 390 q 147 331 113 368 q 182 235 182 294 l 172 65 q 231 -116 172 -60 q 431 -178 290 -172 l 433 -87 q 308 -42 342 -82 q 274 75 274 -3 l 283 236 q 253 366 283 324 q 138 433 222 408 q 253 499 224 458 q 283 628 283 539 l 274 799 "},"|":{"ha":319,"x_min":108,"x_max":211,"o":"m 108 -308 l 211 -308 l 211 997 l 108 997 l 108 -308 "},"}":{"ha":489,"x_min":56,"x_max":456,"o":"m 215 75 q 181 -42 215 -3 q 56 -87 147 -82 l 58 -178 q 258 -116 199 -172 q 317 65 317 -60 l 307 235 q 342 331 307 294 q 456 390 376 368 l 456 475 q 342 530 376 493 q 307 626 307 567 l 317 804 q 258 988 317 932 q 57 1049 199 1043 l 56 958 q 181 915 147 953 q 215 799 215 876 l 206 628 q 235 499 206 539 q 351 433 265 458 q 236 366 267 408 q 206 236 206 324 l 215 75 "},"~":{"ha":778,"x_min":93,"x_max":688,"o":"m 526 271 q 688 346 600 271 l 674 431 l 650 414 q 528 367 576 367 q 398 409 501 367 q 254 451 294 451 q 93 378 179 451 l 108 292 l 132 308 q 192 341 156 325 q 253 357 228 357 q 384 314 279 357 q 526 271 489 271 "}," ":{"ha":306,"x_min":0,"x_max":0,"o":""},"¡":{"ha":317,"x_min":100,"x_max":214,"o":"m 214 694 l 100 694 l 100 539 l 214 539 l 214 694 m 206 378 l 110 378 l 103 -267 l 213 -267 l 206 378 "},"¢":{"ha":778,"x_min":140,"x_max":618,"o":"m 386 -112 l 476 -112 l 476 53 q 618 68 535 56 l 614 153 l 442 143 q 290 187 331 143 q 249 344 249 231 q 290 505 249 458 q 433 551 331 551 q 613 542 503 551 l 617 625 l 594 629 q 476 642 531 642 l 476 810 l 386 810 l 386 646 q 201 567 261 639 q 140 342 140 496 q 199 122 140 188 q 386 50 257 57 l 386 -112 "},"£":{"ha":778,"x_min":111,"x_max":669,"o":"m 618 822 l 619 907 l 589 914 q 435 931 507 931 q 276 874 322 931 q 229 656 229 818 l 229 579 l 136 579 l 136 489 l 229 489 l 229 92 l 111 92 l 111 0 l 556 0 l 669 25 l 651 114 l 544 92 l 331 92 l 331 489 l 568 489 l 568 579 l 331 579 l 331 649 q 354 799 331 760 q 442 838 378 838 q 618 822 507 838 "},"¤":{"ha":778,"x_min":81,"x_max":697,"o":"m 526 140 l 624 42 l 697 115 l 599 213 q 640 349 640 274 q 599 488 640 424 l 697 585 l 624 658 l 526 560 q 388 601 463 601 q 251 560 313 601 l 154 658 l 81 585 l 178 488 q 138 349 138 422 q 178 213 138 275 l 81 115 l 154 42 l 251 140 q 388 99 313 99 q 526 140 463 99 m 276 238 q 229 350 229 285 q 276 463 229 415 q 389 510 324 510 q 501 463 454 510 q 549 350 549 415 q 501 238 549 285 q 389 190 454 190 q 300 214 324 190 q 276 238 276 238 "},"¥":{"ha":778,"x_min":32,"x_max":746,"o":"m 79 438 l 326 438 l 338 411 l 338 317 l 81 317 l 81 226 l 338 226 l 338 0 l 444 0 l 444 226 l 699 226 l 699 317 l 444 317 l 444 411 l 456 438 l 697 438 l 697 528 l 508 528 l 746 917 l 626 917 l 390 542 l 151 917 l 32 917 l 274 528 l 79 528 l 79 438 "},"¦":{"ha":325,"x_min":111,"x_max":214,"o":"m 111 997 l 111 478 l 214 478 l 214 997 l 111 997 m 111 217 l 111 -308 l 214 -308 l 214 217 l 111 217 "},"§":{"ha":693,"x_min":72,"x_max":615,"o":"m 581 793 l 586 881 l 550 886 q 358 904 429 904 q 92 683 92 904 q 153 529 92 574 q 101 460 131 511 q 72 354 72 408 q 126 214 72 257 q 303 148 181 171 q 465 103 425 125 q 506 19 506 82 q 335 -118 506 -118 q 107 -97 258 -118 l 97 -185 l 139 -192 q 340 -208 251 -208 q 606 25 606 -208 q 554 164 606 119 q 615 348 615 253 q 565 483 615 443 q 396 546 514 524 q 235 594 278 568 q 193 686 193 619 q 233 783 193 753 q 351 814 274 814 q 581 793 429 814 m 222 492 q 349 460 260 476 q 474 419 439 444 q 510 344 510 394 q 496 253 510 294 q 475 203 482 213 q 340 238 433 221 q 211 282 246 256 q 176 362 176 308 q 222 492 176 415 "},"¨":{"ha":328,"x_min":-17,"x_max":363,"o":"m -17 863 l 83 863 l 83 988 l -17 988 l -17 863 m 261 863 l 363 863 l 363 988 l 261 988 l 261 863 "},"©":{"ha":896,"x_min":82,"x_max":814,"o":"m 450 224 q 711 333 608 224 q 814 601 814 442 q 710 872 814 761 q 449 982 607 982 q 186 873 290 982 q 82 603 82 764 q 187 333 82 443 q 371 224 292 224 q 450 224 450 224 m 231 829 q 448 922 318 922 q 665 829 578 922 q 753 603 753 736 q 665 377 753 469 q 447 285 578 285 q 230 377 317 285 q 143 603 143 469 q 187 783 143 736 q 231 829 231 829 m 453 383 q 561 400 510 383 l 556 472 l 458 463 q 392 497 410 463 q 375 605 375 531 q 391 710 375 679 q 455 742 407 742 q 556 733 503 742 l 561 807 l 547 811 q 454 821 506 821 q 327 769 364 821 q 290 602 290 717 q 326 435 290 488 q 453 383 363 383 "},"ª":{"ha":536,"x_min":75,"x_max":461,"o":"m 419 778 q 383 885 419 854 q 271 915 346 915 q 100 894 196 915 l 103 828 l 263 838 q 314 825 297 838 q 331 782 331 813 l 331 751 l 208 743 q 75 624 75 735 q 107 531 75 565 q 203 496 139 496 q 343 532 267 496 q 383 504 361 513 q 458 496 406 496 l 461 564 q 419 588 432 572 l 419 778 m 167 625 q 180 665 167 653 q 224 681 193 678 l 331 688 l 331 594 l 314 589 q 217 571 257 571 q 167 625 167 571 "},"«":{"ha":749,"x_min":63,"x_max":656,"o":"m 325 478 l 325 585 l 63 386 l 63 303 l 325 93 l 325 201 l 153 347 l 325 478 m 656 478 l 656 585 l 392 386 l 392 303 l 656 93 l 656 201 l 482 347 l 656 478 "},"¬":{"ha":778,"x_min":90,"x_max":685,"o":"m 90 475 l 90 381 l 588 381 l 588 163 l 685 163 l 685 475 l 90 475 "},"®":{"ha":896,"x_min":82,"x_max":814,"o":"m 450 224 q 711 333 608 224 q 814 602 814 442 q 710 872 814 763 q 449 982 607 982 q 186 873 290 982 q 82 603 82 764 q 187 333 82 443 q 371 224 292 224 q 450 224 450 224 m 448 922 q 665 829 578 922 q 753 603 753 736 q 665 377 753 469 q 448 285 578 285 q 231 378 318 285 q 143 603 143 471 q 231 829 143 736 q 383 922 318 922 q 448 922 448 922 m 376 540 l 458 540 l 528 392 l 613 392 l 536 551 q 591 599 575 569 q 607 690 607 629 q 567 782 607 751 q 449 813 528 813 l 296 813 l 296 392 l 376 392 l 376 540 m 375 747 l 442 747 q 528 676 528 747 q 511 622 528 639 q 457 606 494 606 l 375 606 l 375 747 "},"¯":{"ha":328,"x_min":-19,"x_max":363,"o":"m -19 867 l 363 867 l 363 949 l -19 949 l -19 867 "},"°":{"ha":778,"x_min":192,"x_max":586,"o":"m 247 638 q 389 583 301 583 q 531 638 476 583 q 586 779 586 692 q 531 921 586 867 q 389 975 476 975 q 247 921 301 975 q 192 779 192 867 q 219 665 192 692 q 247 638 247 638 m 389 908 q 482 872 446 908 q 518 778 518 836 q 482 685 518 721 q 389 650 446 650 q 297 685 332 650 q 263 778 263 721 q 297 872 263 836 q 360 908 332 908 q 389 908 389 908 "},"±":{"ha":778,"x_min":76,"x_max":701,"o":"m 76 407 l 339 407 l 339 231 l 436 231 l 436 407 l 701 407 l 701 501 l 436 501 l 436 676 l 339 676 l 339 501 l 76 501 l 76 407 m 76 147 l 76 53 l 701 53 l 701 147 l 76 147 "},"²":{"ha":389,"x_min":42,"x_max":332,"o":"m 332 664 l 332 744 l 154 744 l 242 829 q 307 905 288 871 q 326 985 326 939 q 194 1111 326 1111 q 46 1094 128 1111 l 49 1015 l 167 1028 q 235 976 235 1028 q 164 861 235 929 l 42 740 l 42 664 l 332 664 "},"³":{"ha":389,"x_min":42,"x_max":346,"o":"m 189 1111 q 47 1097 129 1111 l 53 1021 l 181 1031 q 243 983 243 1031 q 226 940 243 958 q 190 922 210 922 l 100 922 l 100 849 l 190 849 q 256 790 256 849 q 191 731 256 731 q 47 742 126 731 l 42 664 l 67 661 q 199 650 139 650 q 346 785 346 650 q 330 859 346 836 q 281 893 314 882 q 335 994 335 924 q 189 1111 335 1111 "},"´":{"ha":372,"x_min":36,"x_max":372,"o":"m 36 892 l 65 821 l 372 939 l 336 1028 l 36 892 "},"µ":{"ha":778,"x_min":117,"x_max":661,"o":"m 557 694 l 557 131 l 532 118 q 460 92 507 106 q 367 79 413 79 q 247 131 274 79 q 221 333 221 182 l 221 694 l 117 694 l 117 -308 l 221 -308 l 221 10 q 362 -14 271 -14 q 557 49 453 -14 l 557 0 l 661 0 l 661 694 l 557 694 "},"¶":{"ha":824,"x_min":49,"x_max":765,"o":"m 571 0 l 665 0 l 665 871 l 765 871 l 765 961 l 308 961 q 122 889 196 961 q 49 704 49 817 q 122 521 49 592 q 307 450 194 450 l 317 450 l 317 0 l 410 0 l 410 871 l 571 871 l 571 0 "},"·":{"ha":301,"x_min":94,"x_max":208,"o":"m 94 318 l 208 318 l 208 476 l 94 476 l 94 318 "},"¸":{"ha":365,"x_min":58,"x_max":307,"o":"m 307 -176 q 271 -90 307 -112 q 153 -68 235 -68 l 153 1 l 96 1 l 96 -129 l 154 -129 q 215 -176 215 -129 q 154 -229 215 -229 q 63 -225 117 -229 l 58 -292 l 75 -294 q 178 -301 114 -301 q 307 -176 307 -301 "},"¹":{"ha":389,"x_min":44,"x_max":268,"o":"m 268 1097 l 185 1097 l 44 1000 l 85 935 l 179 1000 l 179 664 l 268 664 l 268 1097 "},"º":{"ha":528,"x_min":74,"x_max":453,"o":"m 74 708 q 265 496 74 496 q 453 708 453 496 q 406 865 453 815 q 265 915 360 915 q 122 865 169 915 q 74 708 74 815 m 169 708 q 191 803 169 775 q 265 831 213 831 q 337 803 317 831 q 357 708 357 776 q 337 610 357 640 q 265 581 317 581 q 191 610 213 581 q 169 674 169 640 q 169 708 169 708 "},"»":{"ha":749,"x_min":93,"x_max":686,"o":"m 596 347 l 422 201 l 422 93 l 686 303 l 686 386 l 422 585 l 422 478 l 596 347 m 267 347 l 93 201 l 93 93 l 356 303 l 356 386 l 93 585 l 93 478 l 267 347 "},"¼":{"ha":742,"x_min":49,"x_max":697,"o":"m 275 1097 l 192 1097 l 51 1000 l 92 935 l 186 1000 l 186 664 l 275 664 l 275 1097 m 49 39 l 103 4 l 649 881 l 593 917 l 49 39 m 572 -139 l 660 -139 l 660 -72 l 697 -72 l 697 8 l 660 8 l 660 132 l 579 132 l 572 8 l 468 8 l 569 294 l 472 294 l 376 3 l 376 -72 l 572 -72 l 572 -139 "},"½":{"ha":735,"x_min":46,"x_max":675,"o":"m 281 1097 l 197 1097 l 57 1000 l 97 935 l 192 1000 l 192 664 l 281 664 l 281 1097 m 46 39 l 100 4 l 646 881 l 590 917 l 46 39 m 675 -139 l 675 -58 l 497 -58 l 585 26 q 650 102 631 68 q 669 182 669 136 q 536 308 669 308 q 389 292 471 308 l 392 213 l 510 225 q 578 174 578 225 q 507 58 578 126 l 385 -62 l 385 -139 l 675 -139 "},"¾":{"ha":764,"x_min":68,"x_max":721,"o":"m 215 1111 q 74 1097 156 1111 l 79 1021 l 207 1031 q 269 983 269 1031 q 253 940 269 958 q 217 922 236 922 l 126 922 l 126 849 l 217 849 q 282 790 282 849 q 217 731 282 731 q 74 742 153 731 l 68 664 l 92 661 q 225 650 165 650 q 372 785 372 650 q 356 859 372 836 q 307 893 340 882 q 361 994 361 924 q 215 1111 361 1111 m 72 39 l 126 4 l 672 881 l 617 917 l 72 39 m 596 -139 l 683 -139 l 683 -72 l 721 -72 l 721 8 l 683 8 l 683 132 l 603 132 l 596 8 l 492 8 l 593 294 l 496 294 l 400 3 l 400 -72 l 596 -72 l 596 -139 "},"¿":{"ha":613,"x_min":53,"x_max":565,"o":"m 53 -57 q 122 -227 53 -175 q 333 -279 190 -279 q 565 -237 425 -279 l 558 -153 l 522 -161 q 343 -185 417 -185 q 203 -153 247 -185 q 158 -56 158 -121 q 182 44 158 8 q 276 142 206 81 q 379 244 347 203 q 411 332 411 285 q 393 417 411 379 l 306 417 l 306 368 q 278 287 306 324 q 176 188 250 250 q 77 80 101 126 q 53 -57 53 33 m 408 694 l 294 694 l 294 539 l 408 539 l 408 694 "},"À":{"ha":828,"x_min":33,"x_max":794,"o":"m 33 0 l 139 0 l 208 247 l 619 247 l 689 0 l 794 0 l 531 961 l 297 961 l 33 0 m 378 869 l 450 869 l 596 343 l 232 343 l 378 869 m 263 1293 l 226 1201 l 531 1081 l 563 1154 l 263 1293 "},"Á":{"ha":828,"x_min":33,"x_max":794,"o":"m 33 0 l 139 0 l 208 247 l 619 247 l 689 0 l 794 0 l 531 961 l 297 961 l 33 0 m 378 869 l 450 869 l 596 343 l 232 343 l 378 869 m 258 1154 l 290 1081 l 594 1201 l 558 1293 l 258 1154 "},"Â":{"ha":828,"x_min":33,"x_max":794,"o":"m 33 0 l 139 0 l 208 247 l 619 247 l 689 0 l 794 0 l 531 961 l 297 961 l 33 0 m 378 869 l 450 869 l 596 343 l 232 343 l 378 869 m 181 1099 l 297 1099 l 413 1210 l 526 1099 l 643 1099 l 457 1286 l 367 1286 l 181 1099 "},"Ã":{"ha":828,"x_min":33,"x_max":794,"o":"m 33 0 l 139 0 l 208 247 l 619 247 l 689 0 l 794 0 l 531 961 l 297 961 l 33 0 m 378 869 l 450 869 l 596 343 l 232 343 l 378 869 m 519 1115 q 642 1193 576 1115 l 617 1271 l 600 1256 q 519 1207 547 1207 q 421 1244 506 1207 q 304 1282 336 1282 q 236 1257 272 1282 q 174 1201 200 1232 l 197 1124 l 215 1140 q 300 1190 269 1190 q 404 1153 318 1190 q 519 1115 490 1115 "},"Ä":{"ha":828,"x_min":33,"x_max":794,"o":"m 33 0 l 139 0 l 208 247 l 619 247 l 689 0 l 794 0 l 531 961 l 297 961 l 33 0 m 378 869 l 450 869 l 596 343 l 232 343 l 378 869 m 221 1122 l 322 1122 l 322 1247 l 221 1247 l 221 1122 m 504 1122 l 604 1122 l 604 1247 l 504 1247 l 504 1122 "},"Å":{"ha":828,"x_min":33,"x_max":794,"o":"m 413 1179 q 294 1140 340 1179 q 247 1035 247 1101 q 289 929 247 968 l 33 0 l 139 0 l 208 247 l 619 247 l 689 0 l 794 0 l 538 932 q 576 1038 576 974 q 531 1140 576 1101 q 449 1179 485 1179 q 413 1179 413 1179 m 378 869 l 450 869 l 596 343 l 232 343 l 378 869 m 326 1033 q 413 1107 326 1107 q 476 1088 453 1107 q 499 1033 499 1068 q 438 961 499 972 l 386 961 q 326 1033 326 972 "},"Æ":{"ha":1217,"x_min":28,"x_max":1151,"o":"m 567 0 l 1151 0 l 1151 101 l 672 101 l 672 444 l 1068 444 l 1068 546 l 672 546 l 672 865 l 1151 865 l 1151 967 l 339 967 l 28 0 l 138 0 l 218 243 l 567 243 l 567 0 m 417 865 l 568 865 l 567 346 l 247 346 l 417 865 "},"Ç":{"ha":756,"x_min":82,"x_max":699,"o":"m 601 -176 q 565 -90 601 -112 q 447 -68 529 -68 l 447 -14 q 699 15 571 -12 l 694 107 q 463 82 561 82 q 315 105 365 82 q 238 181 264 128 q 202 301 211 235 q 193 478 193 368 q 242 788 193 697 q 444 879 292 879 q 694 854 554 879 l 699 944 q 438 975 549 975 q 257 944 326 975 q 149 847 188 914 q 97 694 111 781 q 82 478 82 607 q 147 117 82 235 q 390 -12 211 0 l 390 -129 l 449 -129 q 510 -176 510 -129 q 449 -229 510 -229 q 357 -225 411 -229 l 353 -292 l 369 -294 q 472 -301 408 -301 q 601 -176 601 -301 "},"È":{"ha":768,"x_min":118,"x_max":703,"o":"m 118 0 l 703 0 l 703 94 l 225 94 l 225 442 l 619 442 l 619 535 l 225 535 l 225 867 l 703 867 l 703 961 l 118 961 l 118 0 m 271 1293 l 235 1201 l 539 1081 l 571 1154 l 271 1293 "},"É":{"ha":768,"x_min":118,"x_max":703,"o":"m 118 0 l 703 0 l 703 94 l 225 94 l 225 442 l 619 442 l 619 535 l 225 535 l 225 867 l 703 867 l 703 961 l 118 961 l 118 0 m 244 1154 l 276 1081 l 581 1201 l 544 1293 l 244 1154 "},"Ê":{"ha":768,"x_min":118,"x_max":703,"o":"m 118 0 l 703 0 l 703 94 l 225 94 l 225 442 l 619 442 l 619 535 l 225 535 l 225 867 l 703 867 l 703 961 l 118 961 l 118 0 m 176 1099 l 293 1099 l 408 1210 l 522 1099 l 639 1099 l 453 1286 l 363 1286 l 176 1099 "},"Ë":{"ha":768,"x_min":118,"x_max":703,"o":"m 118 0 l 703 0 l 703 94 l 225 94 l 225 442 l 619 442 l 619 535 l 225 535 l 225 867 l 703 867 l 703 961 l 118 961 l 118 0 m 218 1122 l 319 1122 l 319 1247 l 218 1247 l 218 1122 m 501 1122 l 601 1122 l 601 1247 l 501 1247 l 501 1122 "},"Ì":{"ha":342,"x_min":-28,"x_max":308,"o":"m 118 0 l 225 0 l 225 961 l 118 961 l 118 0 m 8 1293 l -28 1201 l 276 1081 l 308 1154 l 8 1293 "},"Í":{"ha":342,"x_min":18,"x_max":354,"o":"m 118 0 l 225 0 l 225 961 l 118 961 l 118 0 m 18 1154 l 50 1081 l 354 1201 l 318 1293 l 18 1154 "},"Î":{"ha":342,"x_min":-65,"x_max":397,"o":"m 118 0 l 225 0 l 225 961 l 118 961 l 118 0 m -65 1099 l 51 1099 l 167 1210 l 281 1099 l 397 1099 l 211 1286 l 121 1286 l -65 1099 "},"Ï":{"ha":342,"x_min":-21,"x_max":363,"o":"m 118 0 l 225 0 l 225 961 l 118 961 l 118 0 m -21 1122 l 81 1122 l 81 1247 l -21 1247 l -21 1122 m 263 1122 l 363 1122 l 363 1247 l 263 1247 l 263 1122 "},"Ð":{"ha":899,"x_min":28,"x_max":821,"o":"m 28 432 l 122 432 l 122 0 l 465 0 q 639 39 568 0 q 821 499 821 135 q 741 844 821 722 q 465 967 661 967 l 122 967 l 122 533 l 28 533 l 28 432 m 710 499 q 465 101 710 101 l 228 101 l 228 432 l 447 432 l 447 533 l 228 533 l 228 865 l 465 865 q 586 838 538 865 q 710 499 710 768 "},"Ñ":{"ha":939,"x_min":118,"x_max":821,"o":"m 118 0 l 225 0 l 225 867 l 251 867 l 625 0 l 821 0 l 821 961 l 715 961 l 715 94 l 686 94 l 318 961 l 118 961 l 118 0 m 578 1115 q 700 1193 635 1115 l 675 1271 l 658 1256 q 578 1207 606 1207 q 479 1244 564 1207 q 363 1282 394 1282 q 294 1257 331 1282 q 232 1201 258 1232 l 256 1124 l 274 1140 q 358 1190 328 1190 q 463 1153 376 1190 q 578 1115 549 1115 "},"Ò":{"ha":917,"x_min":79,"x_max":839,"o":"m 189 476 q 245 784 189 688 q 458 881 301 881 q 671 783 614 881 q 728 474 728 686 q 673 171 728 261 q 459 81 618 81 q 244 173 300 81 q 189 371 189 265 q 189 476 189 476 m 839 474 q 755 853 839 731 q 458 975 671 975 q 163 852 246 975 q 79 476 79 729 q 161 104 79 222 q 459 -14 243 -14 q 757 101 675 -14 q 839 345 839 217 q 839 474 839 474 m 315 1293 l 279 1201 l 583 1081 l 615 1154 l 315 1293 "},"Ó":{"ha":917,"x_min":79,"x_max":839,"o":"m 189 476 q 245 784 189 688 q 458 881 301 881 q 671 783 614 881 q 728 474 728 686 q 673 171 728 261 q 459 81 618 81 q 244 173 300 81 q 189 371 189 265 q 189 476 189 476 m 839 474 q 755 853 839 731 q 458 975 671 975 q 163 852 246 975 q 79 476 79 729 q 161 104 79 222 q 459 -14 243 -14 q 757 101 675 -14 q 839 345 839 217 q 839 474 839 474 m 275 1154 l 307 1081 l 611 1201 l 575 1293 l 275 1154 "},"Ô":{"ha":917,"x_min":79,"x_max":839,"o":"m 189 476 q 245 784 189 688 q 458 881 301 881 q 671 783 614 881 q 728 474 728 686 q 673 171 728 261 q 459 81 618 81 q 244 173 300 81 q 189 371 189 265 q 189 476 189 476 m 839 474 q 755 853 839 731 q 458 975 671 975 q 163 852 246 975 q 79 476 79 729 q 161 104 79 222 q 459 -14 243 -14 q 757 101 675 -14 q 839 345 839 217 q 839 474 839 474 m 228 1099 l 344 1099 l 460 1210 l 574 1099 l 690 1099 l 504 1286 l 414 1286 l 228 1099 "},"Õ":{"ha":917,"x_min":79,"x_max":839,"o":"m 189 476 q 245 784 189 688 q 458 881 301 881 q 671 783 614 881 q 728 474 728 686 q 673 171 728 261 q 459 81 618 81 q 244 173 300 81 q 189 371 189 265 q 189 476 189 476 m 839 474 q 755 853 839 731 q 458 975 671 975 q 163 852 246 975 q 79 476 79 729 q 161 104 79 222 q 459 -14 243 -14 q 757 101 675 -14 q 839 345 839 217 q 839 474 839 474 m 567 1115 q 689 1193 624 1115 l 664 1271 l 647 1256 q 567 1207 594 1207 q 468 1244 553 1207 q 351 1282 383 1282 q 283 1257 319 1282 q 221 1201 247 1232 l 244 1124 l 263 1140 q 347 1190 317 1190 q 451 1153 365 1190 q 567 1115 538 1115 "},"Ö":{"ha":917,"x_min":79,"x_max":839,"o":"m 189 476 q 245 784 189 688 q 458 881 301 881 q 671 783 614 881 q 728 474 728 686 q 673 171 728 261 q 459 81 618 81 q 244 173 300 81 q 189 371 189 265 q 189 476 189 476 m 839 474 q 755 853 839 731 q 458 975 671 975 q 163 852 246 975 q 79 476 79 729 q 161 104 79 222 q 459 -14 243 -14 q 757 101 675 -14 q 839 345 839 217 q 839 474 839 474 m 267 1122 l 368 1122 l 368 1247 l 267 1247 l 267 1122 m 550 1122 l 650 1122 l 650 1247 l 550 1247 l 550 1122 "},"×":{"ha":778,"x_min":99,"x_max":679,"o":"m 167 638 l 99 571 l 324 349 l 99 125 l 165 58 l 389 283 l 613 58 l 679 125 l 453 349 l 679 572 l 613 639 l 389 413 l 167 638 "},"Ø":{"ha":917,"x_min":79,"x_max":839,"o":"m 458 -14 q 757 101 675 -14 q 839 476 839 217 q 710 900 839 792 l 792 1076 l 711 1110 l 633 946 q 458 975 563 975 q 163 852 246 975 q 79 476 79 729 q 110 210 79 314 q 215 50 142 106 l 133 -125 l 213 -161 l 292 10 q 458 -14 363 -14 m 458 881 q 592 854 539 881 l 261 150 q 189 459 189 231 q 245 784 189 688 q 458 881 301 881 m 458 81 q 335 100 382 81 l 661 797 q 728 485 728 708 q 673 171 728 261 q 458 81 618 81 "},"Ù":{"ha":894,"x_min":111,"x_max":783,"o":"m 218 289 l 218 961 l 111 961 l 111 292 q 195 58 111 131 q 446 -14 279 -14 q 698 58 613 -14 q 783 292 783 131 l 783 961 l 678 961 l 678 289 q 619 130 678 179 q 443 81 560 81 q 218 289 218 81 m 308 1293 l 272 1201 l 576 1081 l 608 1154 l 308 1293 "},"Ú":{"ha":894,"x_min":111,"x_max":783,"o":"m 218 289 l 218 961 l 111 961 l 111 292 q 195 58 111 131 q 446 -14 279 -14 q 698 58 613 -14 q 783 292 783 131 l 783 961 l 678 961 l 678 289 q 619 130 678 179 q 443 81 560 81 q 218 289 218 81 m 276 1154 l 308 1081 l 613 1201 l 576 1293 l 276 1154 "},"Û":{"ha":894,"x_min":111,"x_max":783,"o":"m 218 289 l 218 961 l 111 961 l 111 292 q 195 58 111 131 q 446 -14 279 -14 q 698 58 613 -14 q 783 292 783 131 l 783 961 l 678 961 l 678 289 q 619 130 678 179 q 443 81 560 81 q 218 289 218 81 m 215 1099 l 332 1099 l 447 1210 l 561 1099 l 678 1099 l 492 1286 l 401 1286 l 215 1099 "},"Ü":{"ha":894,"x_min":111,"x_max":783,"o":"m 218 289 l 218 961 l 111 961 l 111 292 q 195 58 111 131 q 446 -14 279 -14 q 698 58 613 -14 q 783 292 783 131 l 783 961 l 678 961 l 678 289 q 619 130 678 179 q 443 81 560 81 q 218 289 218 81 m 256 1122 l 357 1122 l 357 1247 l 256 1247 l 256 1122 m 539 1122 l 639 1122 l 639 1247 l 539 1247 l 539 1122 "},"Ý":{"ha":747,"x_min":14,"x_max":733,"o":"m 428 0 l 428 404 l 733 961 l 613 961 l 374 511 l 135 961 l 14 961 l 321 404 l 321 0 l 428 0 m 232 1154 l 264 1081 l 568 1201 l 532 1293 l 232 1154 "},"Þ":{"ha":832,"x_min":118,"x_max":778,"o":"m 468 271 l 225 271 l 225 708 l 468 708 q 620 659 572 708 q 668 501 668 610 q 468 271 668 271 m 469 168 q 701 254 624 168 q 778 499 778 340 q 702 735 778 658 q 469 811 626 811 l 225 811 l 225 967 l 118 967 l 118 0 l 225 0 l 225 168 l 469 168 "},"ß":{"ha":797,"x_min":100,"x_max":749,"o":"m 204 0 l 204 744 q 241 882 204 846 q 370 918 278 918 q 498 893 463 918 q 533 815 533 868 q 515 735 533 761 q 443 686 497 710 q 363 634 389 663 q 338 553 338 606 q 369 468 338 501 q 492 392 401 435 q 611 318 582 349 q 640 220 640 288 q 601 116 640 153 q 461 79 561 79 q 292 94 410 79 l 288 7 l 317 1 q 469 -14 400 -14 q 685 45 622 -14 q 749 246 749 104 q 710 372 749 328 q 582 461 672 417 q 469 524 492 506 q 446 563 446 542 q 462 597 446 585 q 533 634 478 610 q 615 698 589 658 q 642 811 642 738 q 578 964 642 917 q 371 1011 515 1011 q 163 954 226 1011 q 100 757 100 897 l 100 0 l 204 0 "},"à":{"ha":696,"x_min":56,"x_max":671,"o":"m 590 485 q 537 654 590 600 q 365 708 483 708 q 94 678 247 708 l 99 599 l 142 603 q 372 617 261 617 q 456 586 425 617 q 486 485 486 556 l 486 425 l 268 404 q 107 345 158 393 q 56 196 56 297 q 106 40 56 94 q 251 -14 156 -14 q 501 42 376 -14 q 667 -14 557 -14 l 671 68 q 590 129 594 78 l 590 485 m 163 201 q 190 290 163 260 q 281 326 218 321 l 486 346 l 486 117 l 454 106 q 268 74 363 74 q 163 201 163 74 m 204 1028 l 168 939 l 475 821 l 504 892 l 204 1028 "},"á":{"ha":696,"x_min":56,"x_max":671,"o":"m 590 485 q 537 654 590 600 q 365 708 483 708 q 94 678 247 708 l 99 599 l 142 603 q 372 617 261 617 q 456 586 425 617 q 486 485 486 556 l 486 425 l 268 404 q 107 345 158 393 q 56 196 56 297 q 106 40 56 94 q 251 -14 156 -14 q 501 42 376 -14 q 667 -14 557 -14 l 671 68 q 590 129 594 78 l 590 485 m 163 201 q 190 290 163 260 q 281 326 218 321 l 486 346 l 486 117 l 454 106 q 268 74 363 74 q 163 201 163 74 m 164 892 l 193 821 l 500 939 l 464 1028 l 164 892 "},"â":{"ha":696,"x_min":56,"x_max":671,"o":"m 590 485 q 537 654 590 600 q 365 708 483 708 q 94 678 247 708 l 99 599 l 142 603 q 372 617 261 617 q 456 586 425 617 q 486 485 486 556 l 486 425 l 268 404 q 107 345 158 393 q 56 196 56 297 q 106 40 56 94 q 251 -14 156 -14 q 501 42 376 -14 q 667 -14 557 -14 l 671 68 q 590 129 594 78 l 590 485 m 163 201 q 190 290 163 260 q 281 326 218 321 l 486 346 l 486 117 l 454 106 q 268 74 363 74 q 163 201 163 74 m 132 822 l 236 822 l 340 943 l 442 822 l 546 822 l 374 1017 l 303 1017 l 132 822 "},"ã":{"ha":696,"x_min":56,"x_max":671,"o":"m 590 485 q 537 654 590 600 q 365 708 483 708 q 94 678 247 708 l 99 599 l 142 603 q 372 617 261 617 q 456 586 425 617 q 486 485 486 556 l 486 425 l 268 404 q 107 345 158 393 q 56 196 56 297 q 106 40 56 94 q 251 -14 156 -14 q 501 42 376 -14 q 667 -14 557 -14 l 671 68 q 590 129 594 78 l 590 485 m 163 201 q 190 290 163 260 q 281 326 218 321 l 486 346 l 486 117 l 454 106 q 268 74 363 74 q 163 201 163 74 m 426 850 q 546 921 482 850 l 522 988 l 506 975 q 422 935 453 935 q 335 967 407 935 q 233 999 263 999 q 107 926 176 999 l 132 860 l 150 874 q 236 915 204 915 q 326 883 254 915 q 426 850 397 850 "},"ä":{"ha":696,"x_min":56,"x_max":671,"o":"m 590 485 q 537 654 590 600 q 365 708 483 708 q 94 678 247 708 l 99 599 l 142 603 q 372 617 261 617 q 456 586 425 617 q 486 485 486 556 l 486 425 l 268 404 q 107 345 158 393 q 56 196 56 297 q 106 40 56 94 q 251 -14 156 -14 q 501 42 376 -14 q 667 -14 557 -14 l 671 68 q 590 129 594 78 l 590 485 m 163 201 q 190 290 163 260 q 281 326 218 321 l 486 346 l 486 117 l 454 106 q 268 74 363 74 q 163 201 163 74 m 146 863 l 246 863 l 246 988 l 146 988 l 146 863 m 424 863 l 525 863 l 525 988 l 424 988 l 424 863 "},"å":{"ha":696,"x_min":56,"x_max":671,"o":"m 590 485 q 537 654 590 600 q 365 708 483 708 q 94 678 247 708 l 99 599 l 142 603 q 372 617 261 617 q 456 586 425 617 q 486 485 486 556 l 486 425 l 268 404 q 107 345 158 393 q 56 196 56 297 q 106 40 56 94 q 251 -14 156 -14 q 501 42 376 -14 q 667 -14 557 -14 l 671 68 q 590 129 594 78 l 590 485 m 163 201 q 190 290 163 260 q 281 326 218 321 l 486 346 l 486 117 l 454 106 q 268 74 363 74 q 163 201 163 74 m 251 793 q 354 751 293 751 q 456 793 415 751 q 497 896 497 835 q 456 999 497 957 q 353 1040 414 1040 q 251 999 293 1040 q 210 896 210 957 q 231 814 210 835 q 251 793 251 793 m 354 974 q 408 951 386 974 q 431 895 431 928 q 408 840 431 863 q 354 817 386 817 q 300 840 322 817 q 278 895 278 863 q 300 951 278 928 q 338 974 322 974 q 354 974 354 974 "},"æ":{"ha":1117,"x_min":56,"x_max":1054,"o":"m 986 90 q 759 81 844 81 q 632 135 674 81 q 590 303 590 189 l 1049 303 l 1054 383 q 985 630 1054 551 q 770 708 915 708 q 558 607 625 708 q 371 708 513 708 q 97 688 263 708 l 101 594 l 144 597 q 365 608 274 608 q 486 482 486 608 l 486 425 l 307 408 q 113 352 169 394 q 56 203 56 310 q 103 41 56 96 q 244 -14 151 -14 q 511 42 390 -14 l 556 61 q 747 -14 622 -14 q 1029 8 872 -14 l 1026 93 l 986 90 m 261 76 q 163 201 163 76 q 191 289 163 260 q 281 324 219 318 l 483 340 q 510 128 483 199 q 407 97 489 117 q 261 76 325 76 m 590 388 q 637 561 590 507 q 776 615 683 615 q 909 563 868 615 q 950 388 950 511 l 590 388 "},"ç":{"ha":606,"x_min":71,"x_max":550,"o":"m 500 -176 q 464 -90 500 -112 q 346 -68 428 -68 l 346 -14 l 357 -14 q 550 6 421 -14 l 546 92 l 382 79 q 217 139 257 79 q 178 351 178 199 q 220 559 178 503 q 381 615 263 615 q 544 603 433 615 l 549 688 l 515 692 q 360 708 406 708 q 138 628 204 708 q 71 361 71 549 q 119 89 71 174 q 289 -10 167 4 l 289 -129 l 347 -129 q 408 -176 408 -129 q 347 -229 408 -229 q 256 -225 310 -229 l 251 -292 l 267 -294 q 371 -301 307 -301 q 500 -176 500 -301 "},"è":{"ha":701,"x_min":69,"x_max":639,"o":"m 572 86 q 362 78 465 78 q 217 133 258 78 q 175 304 175 189 l 633 304 l 639 383 q 569 630 639 551 q 360 708 500 708 q 69 343 69 708 q 132 73 69 160 q 344 -14 194 -14 q 615 8 457 -14 l 613 90 l 572 86 m 535 388 l 174 388 q 222 565 175 510 q 360 621 268 621 q 494 568 453 621 q 535 388 535 515 m 204 1029 l 168 940 l 475 822 l 504 893 l 204 1029 "},"é":{"ha":701,"x_min":69,"x_max":639,"o":"m 572 86 q 362 78 465 78 q 217 133 258 78 q 175 304 175 189 l 633 304 l 639 383 q 569 630 639 551 q 360 708 500 708 q 69 343 69 708 q 132 73 69 160 q 344 -14 194 -14 q 615 8 457 -14 l 613 90 l 572 86 m 535 388 l 174 388 q 222 565 175 510 q 360 621 268 621 q 494 568 453 621 q 535 388 535 515 m 201 892 l 231 821 l 538 939 l 501 1028 l 201 892 "},"ê":{"ha":701,"x_min":69,"x_max":639,"o":"m 572 86 q 362 78 465 78 q 217 133 258 78 q 175 304 175 189 l 633 304 l 639 383 q 569 630 639 551 q 360 708 500 708 q 69 343 69 708 q 132 73 69 160 q 344 -14 194 -14 q 615 8 457 -14 l 613 90 l 572 86 m 535 388 l 174 388 q 222 565 175 510 q 360 621 268 621 q 494 568 453 621 q 535 388 535 515 m 156 822 l 260 822 l 364 943 l 465 822 l 569 822 l 397 1017 l 326 1017 l 156 822 "},"ë":{"ha":701,"x_min":69,"x_max":639,"o":"m 572 86 q 362 78 465 78 q 217 133 258 78 q 175 304 175 189 l 633 304 l 639 383 q 569 630 639 551 q 360 708 500 708 q 69 343 69 708 q 132 73 69 160 q 344 -14 194 -14 q 615 8 457 -14 l 613 90 l 572 86 m 535 388 l 174 388 q 222 565 175 510 q 360 621 268 621 q 494 568 453 621 q 535 388 535 515 m 167 863 l 267 863 l 267 988 l 167 988 l 167 863 m 444 863 l 546 863 l 546 988 l 444 988 l 444 863 "},"ì":{"ha":304,"x_min":-83,"x_max":253,"o":"m 100 0 l 204 0 l 204 694 l 100 694 l 100 0 m -47 1028 l -83 939 l 224 821 l 253 892 l -47 1028 "},"í":{"ha":304,"x_min":53,"x_max":389,"o":"m 53 892 l 82 821 l 389 939 l 353 1028 l 53 892 m 100 694 l 100 0 l 204 0 l 204 694 l 100 694 "},"î":{"ha":304,"x_min":-58,"x_max":356,"o":"m 100 694 l 100 0 l 204 0 l 204 694 l 100 694 m -58 822 l 46 822 l 150 943 l 251 822 l 356 822 l 183 1017 l 113 1017 l -58 822 "},"ï":{"ha":304,"x_min":-43,"x_max":336,"o":"m 100 694 l 100 0 l 204 0 l 204 694 l 100 694 m -43 863 l 57 863 l 57 988 l -43 988 l -43 863 m 235 863 l 336 863 l 336 988 l 235 988 l 235 863 "},"ð":{"ha":761,"x_min":58,"x_max":689,"o":"m 475 893 l 582 965 l 535 1031 l 394 936 q 154 1011 293 983 l 133 933 q 306 876 231 908 l 174 788 l 219 722 l 389 835 q 579 547 569 728 l 544 560 q 350 597 440 597 q 135 516 211 597 q 58 291 58 435 q 139 67 58 147 q 368 -12 219 -12 q 614 103 539 -12 q 689 488 689 219 q 475 893 689 757 m 581 454 q 531 164 579 246 q 376 82 482 82 q 219 138 269 82 q 168 292 168 194 q 217 447 168 389 q 361 504 267 504 q 581 454 456 504 "},"ñ":{"ha":746,"x_min":100,"x_max":653,"o":"m 100 0 l 204 0 l 204 564 q 397 615 300 615 q 522 562 493 615 q 550 364 550 508 l 550 0 l 653 0 q 653 367 653 367 q 605 633 653 558 q 418 708 557 708 q 319 693 372 708 q 233 661 265 678 l 203 646 l 203 694 l 100 694 l 100 0 m 485 850 q 604 921 540 850 l 581 988 l 564 975 q 481 935 511 935 q 393 967 465 935 q 292 999 321 999 q 165 926 235 999 l 190 860 l 208 874 q 294 915 263 915 q 384 883 313 915 q 485 850 456 850 "},"ò":{"ha":733,"x_min":69,"x_max":664,"o":"m 69 349 q 133 72 69 158 q 367 -14 197 -14 q 600 72 536 -14 q 664 349 664 158 q 597 624 664 539 q 367 708 529 708 q 138 624 206 708 q 69 444 69 539 q 69 349 69 349 m 176 351 q 217 560 176 503 q 367 618 258 618 q 517 560 476 618 q 557 350 557 503 q 521 137 557 197 q 367 76 485 76 q 213 138 250 76 q 176 275 176 199 q 176 351 176 351 m 232 1028 l 196 939 l 503 821 l 532 892 l 232 1028 "},"ó":{"ha":733,"x_min":69,"x_max":664,"o":"m 367 708 q 138 624 206 708 q 69 349 69 539 q 133 72 69 158 q 367 -14 197 -14 q 600 72 536 -14 q 664 349 664 158 q 597 624 664 539 q 448 708 529 708 q 367 708 367 708 m 367 76 q 213 138 250 76 q 176 351 176 199 q 217 560 176 503 q 367 618 258 618 q 517 560 476 618 q 557 350 557 503 q 521 137 557 197 q 426 76 485 76 q 367 76 367 76 m 214 892 l 243 821 l 550 939 l 514 1028 l 214 892 "},"ô":{"ha":733,"x_min":69,"x_max":664,"o":"m 367 708 q 138 624 206 708 q 69 349 69 539 q 133 72 69 158 q 367 -14 197 -14 q 600 72 536 -14 q 664 349 664 158 q 597 624 664 539 q 448 708 529 708 q 367 708 367 708 m 367 76 q 213 138 250 76 q 176 351 176 199 q 217 560 176 503 q 367 618 258 618 q 517 560 476 618 q 557 350 557 503 q 521 137 557 197 q 426 76 485 76 q 367 76 367 76 m 157 822 l 261 822 l 365 943 l 467 822 l 571 822 l 399 1017 l 328 1017 l 157 822 "},"õ":{"ha":733,"x_min":69,"x_max":664,"o":"m 367 708 q 138 624 206 708 q 69 349 69 539 q 133 72 69 158 q 367 -14 197 -14 q 600 72 536 -14 q 664 349 664 158 q 597 624 664 539 q 448 708 529 708 q 367 708 367 708 m 367 76 q 213 138 250 76 q 176 351 176 199 q 217 560 176 503 q 367 618 258 618 q 517 560 476 618 q 557 350 557 503 q 521 137 557 197 q 426 76 485 76 q 367 76 367 76 m 465 850 q 585 921 521 850 l 561 988 l 544 975 q 461 935 492 935 q 374 967 446 935 q 272 999 301 999 q 146 926 215 999 l 171 860 l 189 874 q 275 915 243 915 q 365 883 293 915 q 465 850 436 850 "},"ö":{"ha":733,"x_min":69,"x_max":664,"o":"m 367 708 q 138 624 206 708 q 69 349 69 539 q 133 72 69 158 q 367 -14 197 -14 q 600 72 536 -14 q 664 349 664 158 q 597 624 664 539 q 448 708 529 708 q 367 708 367 708 m 367 76 q 213 138 250 76 q 176 351 176 199 q 217 560 176 503 q 367 618 258 618 q 517 560 476 618 q 557 350 557 503 q 521 137 557 197 q 426 76 485 76 q 367 76 367 76 m 174 863 l 274 863 l 274 988 l 174 988 l 174 863 m 451 863 l 553 863 l 553 988 l 451 988 l 451 863 "},"÷":{"ha":778,"x_min":167,"x_max":610,"o":"m 167 390 l 610 390 l 610 492 l 532 492 l 532 558 l 246 558 l 246 492 l 167 492 l 167 390 m 336 42 l 440 42 l 440 182 l 336 182 l 336 42 "},"ø":{"ha":733,"x_min":69,"x_max":664,"o":"m 367 708 q 138 624 206 708 q 69 356 69 539 q 97 139 69 219 q 193 21 125 58 l 132 -131 l 201 -156 l 261 -3 q 367 -14 310 -14 q 600 72 536 -14 q 664 356 664 158 q 539 671 664 601 l 599 815 l 529 842 l 469 697 q 367 708 421 708 m 367 618 q 436 610 407 618 l 235 111 q 188 197 200 140 q 176 378 176 254 q 217 560 176 503 q 367 618 258 618 m 367 76 q 296 83 321 76 l 499 579 q 557 362 557 526 q 521 137 557 197 q 367 76 485 76 "},"ù":{"ha":738,"x_min":93,"x_max":638,"o":"m 533 694 l 533 131 l 508 118 q 436 92 483 106 q 343 79 389 79 q 224 131 250 79 q 197 333 197 182 l 197 694 l 93 694 l 93 332 q 140 60 93 133 q 328 -14 186 -14 q 533 49 429 -14 l 533 0 l 638 0 l 638 694 l 533 694 m 194 1028 l 158 939 l 465 821 l 494 892 l 194 1028 "},"ú":{"ha":738,"x_min":93,"x_max":638,"o":"m 638 694 l 533 694 l 533 131 q 348 79 446 79 q 224 131 250 79 q 197 333 197 182 l 197 694 l 93 694 q 93 332 93 332 q 140 60 93 133 q 328 -14 186 -14 q 424 1 372 -14 q 504 33 475 17 l 533 49 l 533 0 l 638 0 l 638 694 m 215 892 l 244 821 l 551 939 l 515 1028 l 215 892 "},"û":{"ha":738,"x_min":93,"x_max":638,"o":"m 638 694 l 533 694 l 533 131 q 348 79 446 79 q 224 131 250 79 q 197 333 197 182 l 197 694 l 93 694 q 93 332 93 332 q 140 60 93 133 q 328 -14 186 -14 q 424 1 372 -14 q 504 33 475 17 l 533 49 l 533 0 l 638 0 l 638 694 m 146 822 l 250 822 l 354 943 l 456 822 l 560 822 l 388 1017 l 317 1017 l 146 822 "},"ü":{"ha":738,"x_min":93,"x_max":638,"o":"m 638 694 l 533 694 l 533 131 q 348 79 446 79 q 224 131 250 79 q 197 333 197 182 l 197 694 l 93 694 q 93 332 93 332 q 140 60 93 133 q 328 -14 186 -14 q 424 1 372 -14 q 504 33 475 17 l 533 49 l 533 0 l 638 0 l 638 694 m 183 863 l 283 863 l 283 988 l 183 988 l 183 863 m 461 863 l 563 863 l 563 988 l 461 988 l 461 863 "},"ý":{"ha":671,"x_min":35,"x_max":638,"o":"m 35 694 l 232 0 l 335 0 l 244 -308 l 349 -308 l 638 694 l 533 694 l 358 90 l 313 90 l 139 694 l 35 694 m 214 892 l 243 821 l 550 939 l 514 1028 l 214 892 "},"þ":{"ha":732,"x_min":100,"x_max":661,"o":"m 339 76 q 204 85 294 76 l 204 575 l 231 585 q 397 615 317 615 q 520 556 486 615 q 554 349 554 496 q 512 140 554 203 q 339 76 469 76 m 407 708 q 204 660 308 708 l 204 997 l 100 997 l 100 -308 l 204 -308 l 204 -4 l 344 -14 q 592 69 524 -14 q 661 350 661 151 q 604 628 661 549 q 407 708 547 708 "},"ÿ":{"ha":671,"x_min":35,"x_max":638,"o":"m 35 694 l 232 0 l 335 0 l 244 -308 l 349 -308 l 638 694 l 533 694 l 358 90 l 313 90 l 139 694 l 35 694 m 144 863 l 244 863 l 244 988 l 144 988 l 144 863 m 422 863 l 524 863 l 524 988 l 422 988 l 422 863 "},"Ā":{"ha":828,"x_min":33,"x_max":794,"o":"m 33 0 l 139 0 l 208 247 l 619 247 l 689 0 l 794 0 l 531 961 l 297 961 l 33 0 m 378 869 l 450 869 l 596 343 l 232 343 l 378 869 m 196 1128 l 628 1128 l 628 1208 l 196 1208 l 196 1128 "},"ā":{"ha":696,"x_min":56,"x_max":671,"o":"m 590 485 q 537 654 590 600 q 365 708 483 708 q 94 678 247 708 l 99 599 l 142 603 q 372 617 261 617 q 456 586 425 617 q 486 485 486 556 l 486 425 l 268 404 q 107 345 158 393 q 56 196 56 297 q 106 40 56 94 q 251 -14 156 -14 q 501 42 376 -14 q 667 -14 557 -14 l 671 68 q 590 129 594 78 l 590 485 m 163 201 q 190 290 163 260 q 281 326 218 321 l 486 346 l 486 117 l 454 106 q 268 74 363 74 q 163 201 163 74 m 156 867 l 538 867 l 538 949 l 156 949 l 156 867 "},"Ă":{"ha":828,"x_min":33,"x_max":794,"o":"m 33 0 l 139 0 l 208 247 l 619 247 l 689 0 l 794 0 l 531 961 l 297 961 l 33 0 m 378 869 l 450 869 l 596 343 l 232 343 l 378 869 m 289 1275 l 193 1275 q 256 1143 197 1193 q 411 1093 315 1093 q 567 1143 507 1093 q 631 1275 626 1193 l 533 1275 q 497 1200 532 1229 q 412 1171 463 1171 q 326 1200 361 1171 q 289 1275 290 1229 "},"ă":{"ha":699,"x_min":56,"x_max":669,"o":"m 590 482 q 536 653 590 599 q 371 708 482 708 q 140 688 274 708 l 96 681 l 100 590 q 365 608 264 608 q 486 482 486 608 l 486 425 q 268 404 268 404 q 107 346 158 394 q 56 197 56 297 q 105 42 56 97 q 244 -14 154 -14 q 368 -1 304 -14 q 467 25 432 13 l 501 39 q 667 -14 553 -14 l 669 76 q 590 140 592 86 l 590 482 m 261 76 q 188 109 214 76 q 163 201 163 142 q 281 324 163 313 l 486 340 l 486 118 q 261 76 365 76 m 235 1018 l 128 1018 q 191 876 132 931 q 351 821 250 821 q 510 876 451 821 q 574 1018 569 931 l 467 1018 q 435 942 465 971 q 351 914 404 914 q 267 942 297 914 q 235 1018 238 971 "},"Ą":{"ha":828,"x_min":33,"x_max":822,"o":"m 686 -142 q 783 0 686 -97 l 794 0 l 531 961 l 297 961 l 33 0 l 139 0 l 208 247 l 619 247 l 689 1 q 619 -76 654 -29 q 585 -172 585 -122 q 621 -253 585 -221 q 708 -286 657 -286 q 822 -274 760 -286 l 813 -193 l 743 -201 q 702 -185 718 -201 q 686 -142 686 -168 m 378 869 l 450 869 l 596 343 l 232 343 l 378 869 "},"ą":{"ha":694,"x_min":56,"x_max":671,"o":"m 590 485 q 537 654 590 600 q 365 708 483 708 q 94 678 247 708 l 99 599 l 142 603 q 372 617 261 617 q 456 586 425 617 q 486 485 486 556 l 486 425 l 268 404 q 107 345 158 393 q 56 196 56 297 q 106 40 56 94 q 251 -14 156 -14 q 501 42 376 -14 q 546 8 524 19 q 460 -90 497 -31 q 433 -176 433 -132 q 469 -253 433 -221 q 557 -286 506 -286 q 671 -274 608 -286 l 661 -193 l 592 -201 q 551 -185 567 -201 q 535 -142 535 -168 q 619 -11 535 -100 q 667 -14 650 -14 l 671 68 q 590 129 594 78 l 590 485 m 163 201 q 190 290 163 260 q 281 326 218 321 l 486 346 l 486 117 l 454 106 q 268 74 363 74 q 163 201 163 74 "},"Ć":{"ha":756,"x_min":82,"x_max":699,"o":"m 699 15 l 694 107 q 463 82 561 82 q 315 105 365 82 q 238 181 264 128 q 202 301 211 235 q 193 478 193 368 q 242 788 193 697 q 444 879 292 879 q 694 854 554 879 l 699 944 q 438 975 549 975 q 257 944 326 975 q 149 847 188 914 q 97 694 111 781 q 82 479 82 607 q 97 266 82 351 q 149 115 111 181 q 258 17 188 49 q 442 -14 328 -14 q 699 15 556 -14 m 251 1154 l 283 1081 l 588 1201 l 551 1293 l 251 1154 "},"ć":{"ha":606,"x_min":71,"x_max":550,"o":"m 360 708 q 138 628 204 708 q 71 351 71 549 q 133 69 71 153 q 357 -14 194 -14 q 550 6 421 -14 l 546 92 l 382 79 q 217 139 257 79 q 178 351 178 199 q 220 559 178 503 q 381 615 263 615 q 544 603 433 615 l 549 688 l 515 692 q 360 708 406 708 m 175 892 l 204 821 l 511 939 l 475 1028 l 175 892 "},"Ĉ":{"ha":756,"x_min":82,"x_max":699,"o":"m 699 15 l 694 107 q 463 82 561 82 q 315 105 365 82 q 238 181 264 128 q 202 301 211 235 q 193 478 193 368 q 242 788 193 697 q 444 879 292 879 q 694 854 554 879 l 699 944 q 438 975 549 975 q 257 944 326 975 q 149 847 188 914 q 97 694 111 781 q 82 479 82 607 q 97 266 82 351 q 149 115 111 181 q 258 17 188 49 q 442 -14 328 -14 q 699 15 556 -14 m 200 1099 l 317 1099 l 432 1210 l 546 1099 l 663 1099 l 476 1286 l 386 1286 l 200 1099 "},"ĉ":{"ha":606,"x_min":71,"x_max":550,"o":"m 360 708 q 138 628 204 708 q 71 351 71 549 q 133 69 71 153 q 357 -14 194 -14 q 550 6 421 -14 l 546 92 l 382 79 q 217 139 257 79 q 178 351 178 199 q 220 559 178 503 q 381 615 263 615 q 544 603 433 615 l 549 688 l 515 692 q 360 708 406 708 m 115 822 l 219 822 l 324 943 l 425 822 l 529 822 l 357 1017 l 286 1017 l 115 822 "},"Ċ":{"ha":756,"x_min":82,"x_max":699,"o":"m 699 15 l 694 107 q 463 82 561 82 q 315 105 365 82 q 238 181 264 128 q 202 301 211 235 q 193 478 193 368 q 242 788 193 697 q 444 879 292 879 q 694 854 554 879 l 699 944 q 438 975 549 975 q 257 944 326 975 q 149 847 188 914 q 97 694 111 781 q 82 479 82 607 q 97 266 82 351 q 149 115 111 181 q 258 17 188 49 q 442 -14 328 -14 q 699 15 556 -14 m 354 1108 l 457 1108 l 457 1229 l 354 1229 l 354 1108 "},"ċ":{"ha":606,"x_min":71,"x_max":550,"o":"m 360 708 q 138 628 204 708 q 71 351 71 549 q 133 69 71 153 q 357 -14 194 -14 q 550 6 421 -14 l 546 92 l 382 79 q 217 139 257 79 q 178 351 178 199 q 220 559 178 503 q 381 615 263 615 q 544 603 433 615 l 549 688 l 515 692 q 360 708 406 708 m 297 846 l 400 846 l 400 967 l 297 967 l 297 846 "},"Č":{"ha":756,"x_min":82,"x_max":699,"o":"m 699 15 l 694 107 q 463 82 561 82 q 315 105 365 82 q 238 181 264 128 q 202 301 211 235 q 193 478 193 368 q 242 788 193 697 q 444 879 292 879 q 694 854 554 879 l 699 944 q 438 975 549 975 q 257 944 326 975 q 149 847 188 914 q 97 694 111 781 q 82 479 82 607 q 97 266 82 351 q 149 115 111 181 q 258 17 188 49 q 442 -14 328 -14 q 699 15 556 -14 m 376 1099 l 467 1099 l 653 1286 l 536 1286 l 422 1175 l 307 1286 l 190 1286 l 376 1099 "},"č":{"ha":606,"x_min":71,"x_max":550,"o":"m 360 708 q 138 628 204 708 q 71 351 71 549 q 133 69 71 153 q 357 -14 194 -14 q 550 6 421 -14 l 546 92 l 382 79 q 217 139 257 79 q 178 351 178 199 q 220 559 178 503 q 381 615 263 615 q 544 603 433 615 l 549 688 l 515 692 q 360 708 406 708 m 297 822 l 367 822 l 540 1017 l 436 1017 l 333 896 l 229 1017 l 126 1017 l 297 822 "},"Ď":{"ha":896,"x_min":118,"x_max":817,"o":"m 461 0 q 636 38 564 0 q 817 494 817 132 q 772 775 817 668 q 461 961 696 961 l 118 961 l 118 0 l 461 0 m 707 494 q 461 94 707 94 l 225 94 l 225 867 l 461 867 q 583 839 533 867 q 707 494 707 771 m 364 1099 l 454 1099 l 640 1286 l 524 1286 l 410 1175 l 294 1286 l 178 1286 l 364 1099 "},"ď":{"ha":799,"x_min":69,"x_max":878,"o":"m 775 949 l 719 661 l 810 661 l 878 949 l 775 949 m 633 997 l 531 997 l 531 690 q 360 708 440 708 q 137 619 204 708 q 69 327 69 529 q 144 50 69 125 q 222 0 181 14 q 319 -14 264 -14 q 531 47 424 -14 l 531 0 l 633 0 l 633 997 m 225 125 q 176 342 176 181 q 218 551 176 483 q 365 618 260 618 q 531 601 442 618 l 531 131 l 503 118 q 426 92 475 106 q 337 79 376 79 q 272 89 297 79 q 225 125 247 99 "},"Đ":{"ha":899,"x_min":28,"x_max":821,"o":"m 28 432 l 122 432 l 122 0 l 465 0 q 639 39 568 0 q 821 499 821 135 q 741 844 821 722 q 465 967 661 967 l 122 967 l 122 533 l 28 533 l 28 432 m 710 499 q 465 101 710 101 l 228 101 l 228 432 l 447 432 l 447 533 l 228 533 l 228 865 l 465 865 q 586 838 538 865 q 710 499 710 768 "},"đ":{"ha":735,"x_min":69,"x_max":665,"o":"m 633 997 l 531 997 l 531 956 l 261 956 l 261 864 l 531 864 l 531 690 q 360 708 440 708 q 137 619 204 708 q 69 327 69 529 q 144 50 69 125 q 222 0 181 14 q 319 -14 264 -14 q 531 47 424 -14 l 531 0 l 633 0 l 633 864 l 665 864 l 665 956 l 633 956 l 633 997 m 225 125 q 176 342 176 181 q 218 551 176 483 q 365 618 260 618 q 531 601 442 618 l 531 131 l 503 118 q 426 92 475 106 q 337 79 376 79 q 272 89 297 79 q 225 125 247 99 "},"Ē":{"ha":768,"x_min":118,"x_max":703,"o":"m 118 0 l 703 0 l 703 94 l 225 94 l 225 442 l 619 442 l 619 535 l 225 535 l 225 867 l 703 867 l 703 961 l 118 961 l 118 0 m 192 1128 l 624 1128 l 624 1208 l 192 1208 l 192 1128 "},"ē":{"ha":701,"x_min":69,"x_max":639,"o":"m 572 86 q 362 78 465 78 q 217 133 258 78 q 175 304 175 189 l 633 304 l 639 383 q 569 630 639 551 q 360 708 500 708 q 69 343 69 708 q 132 73 69 160 q 344 -14 194 -14 q 615 8 457 -14 l 613 90 l 572 86 m 535 388 l 174 388 q 222 565 175 510 q 360 621 268 621 q 494 568 453 621 q 535 388 535 515 m 171 867 l 553 867 l 553 949 l 171 949 l 171 867 "},"Ĕ":{"ha":768,"x_min":118,"x_max":703,"o":"m 118 0 l 703 0 l 703 94 l 225 94 l 225 442 l 619 442 l 619 535 l 225 535 l 225 867 l 703 867 l 703 961 l 118 961 l 118 0 m 300 1275 l 204 1275 q 267 1143 208 1193 q 422 1093 326 1093 q 578 1143 518 1093 q 642 1275 638 1193 l 544 1275 q 508 1200 543 1229 q 423 1171 474 1171 q 337 1200 372 1171 q 300 1275 301 1229 "},"ĕ":{"ha":701,"x_min":69,"x_max":639,"o":"m 572 86 q 362 78 465 78 q 217 133 258 78 q 175 304 175 189 l 633 304 l 639 383 q 569 630 639 551 q 360 708 500 708 q 69 343 69 708 q 132 73 69 160 q 344 -14 194 -14 q 615 8 457 -14 l 613 90 l 572 86 m 535 388 l 174 388 q 222 565 175 510 q 360 621 268 621 q 494 568 453 621 q 535 388 535 515 m 235 1008 l 150 1008 q 210 869 154 925 q 356 814 265 814 q 503 869 447 814 q 563 1008 558 925 l 476 1008 q 443 924 475 956 q 356 892 411 892 q 269 924 301 892 q 235 1008 238 956 "},"Ė":{"ha":768,"x_min":118,"x_max":703,"o":"m 118 0 l 703 0 l 703 94 l 225 94 l 225 442 l 619 442 l 619 535 l 225 535 l 225 867 l 703 867 l 703 961 l 118 961 l 118 0 m 361 1113 l 464 1113 l 464 1233 l 361 1233 l 361 1113 "},"ė":{"ha":701,"x_min":69,"x_max":639,"o":"m 572 86 q 362 78 465 78 q 217 133 258 78 q 175 304 175 189 l 633 304 l 639 383 q 569 630 639 551 q 360 708 500 708 q 69 343 69 708 q 132 73 69 160 q 344 -14 194 -14 q 615 8 457 -14 l 613 90 l 572 86 m 535 388 l 174 388 q 222 565 175 510 q 360 621 268 621 q 494 568 453 621 q 535 388 535 515 m 301 846 l 404 846 l 404 967 l 301 967 l 301 846 "},"Ę":{"ha":768,"x_min":118,"x_max":703,"o":"m 118 0 l 567 0 q 498 -76 532 -31 q 464 -172 464 -122 q 500 -253 464 -221 q 588 -286 536 -286 q 701 -274 639 -286 l 692 -193 l 622 -201 q 581 -185 597 -201 q 565 -142 565 -168 q 663 0 565 -97 l 703 0 l 703 94 l 225 94 l 225 442 l 619 442 l 619 535 l 225 535 l 225 867 l 703 867 l 703 961 l 118 961 l 118 0 "},"ę":{"ha":703,"x_min":69,"x_max":639,"o":"m 476 -142 q 575 1 476 -96 l 567 1 q 615 8 593 6 l 613 90 l 572 86 q 357 78 465 78 q 217 133 258 78 q 175 304 175 189 l 633 304 l 639 383 q 569 630 639 551 q 360 708 500 708 q 69 343 69 708 q 132 73 69 160 q 344 -14 194 -14 q 469 -7 397 -14 q 375 -159 375 -97 q 411 -253 375 -221 q 499 -286 447 -286 q 613 -274 550 -286 l 603 -193 l 533 -201 q 492 -185 508 -201 q 476 -142 476 -168 m 535 388 l 174 388 q 222 565 175 510 q 360 621 268 621 q 494 568 453 621 q 535 388 535 515 "},"Ě":{"ha":768,"x_min":118,"x_max":703,"o":"m 118 0 l 703 0 l 703 94 l 225 94 l 225 442 l 619 442 l 619 535 l 225 535 l 225 867 l 703 867 l 703 961 l 118 961 l 118 0 m 358 1099 l 449 1099 l 635 1286 l 518 1286 l 404 1175 l 289 1286 l 172 1286 l 358 1099 "},"ě":{"ha":701,"x_min":69,"x_max":639,"o":"m 572 86 q 362 78 465 78 q 217 133 258 78 q 175 304 175 189 l 633 304 l 639 383 q 569 630 639 551 q 360 708 500 708 q 69 343 69 708 q 132 73 69 160 q 344 -14 194 -14 q 615 8 457 -14 l 613 90 l 572 86 m 535 388 l 174 388 q 222 565 175 510 q 360 621 268 621 q 494 568 453 621 q 535 388 535 515 m 315 822 l 385 822 l 558 1017 l 454 1017 l 351 896 l 247 1017 l 144 1017 l 315 822 "},"Ĝ":{"ha":856,"x_min":79,"x_max":764,"o":"m 499 399 l 658 399 l 658 103 q 460 83 557 83 q 246 176 301 83 q 190 483 190 268 q 246 790 190 697 q 461 882 301 882 q 760 853 588 882 l 764 942 l 717 950 q 449 978 578 978 q 160 856 242 978 q 79 483 79 735 q 160 110 79 231 q 451 -11 242 -11 q 764 22 589 -11 l 764 494 l 499 494 l 499 399 m 217 1094 l 333 1094 l 449 1206 l 563 1094 l 679 1094 l 493 1282 l 403 1282 l 217 1094 "},"ĝ":{"ha":714,"x_min":69,"x_max":688,"o":"m 368 -326 q 676 -106 676 -326 q 618 57 676 15 q 426 99 560 99 q 267 109 293 99 q 240 163 240 119 q 265 242 240 181 q 333 236 296 236 q 537 288 472 236 q 601 471 601 340 q 556 610 601 564 l 688 607 l 688 696 l 482 690 l 461 694 q 338 708 404 708 q 78 471 78 708 q 188 261 78 311 l 175 239 q 140 151 140 175 q 179 56 140 82 q 94 -24 119 11 q 69 -117 69 -60 q 135 -281 69 -236 q 368 -326 201 -326 m 172 -108 q 188 -44 172 -69 q 250 14 204 -19 l 400 7 q 536 -14 501 7 q 571 -106 571 -35 q 523 -208 571 -178 q 365 -239 475 -239 q 213 -210 254 -239 q 172 -108 172 -182 m 182 471 q 219 588 182 553 q 340 624 256 624 q 461 589 425 624 q 497 472 497 554 q 461 354 497 389 q 340 319 425 319 q 219 354 256 319 q 182 430 182 389 q 182 471 182 471 m 157 822 l 261 822 l 365 943 l 467 822 l 571 822 l 399 1017 l 328 1017 l 157 822 "},"Ğ":{"ha":856,"x_min":79,"x_max":764,"o":"m 499 396 l 658 396 l 658 100 q 460 81 557 81 q 246 173 301 81 q 190 480 190 265 q 246 787 190 694 q 461 879 301 879 q 760 850 588 879 l 764 939 l 717 947 q 449 975 578 975 q 160 853 242 975 q 79 480 79 732 q 160 107 79 228 q 451 -14 242 -14 q 764 19 589 -14 l 764 492 l 499 492 l 499 396 m 333 1275 l 238 1275 q 301 1143 242 1193 q 456 1093 360 1093 q 611 1143 551 1093 q 675 1275 671 1193 l 578 1275 q 542 1200 576 1229 q 456 1171 507 1171 q 370 1200 406 1171 q 333 1275 335 1229 "},"ğ":{"ha":714,"x_min":69,"x_max":688,"o":"m 368 -326 q 676 -106 676 -326 q 618 57 676 15 q 426 99 560 99 q 267 109 293 99 q 240 163 240 119 q 265 242 240 181 q 333 236 296 236 q 537 288 472 236 q 601 471 601 340 q 556 610 601 564 l 688 607 l 688 696 l 482 690 l 461 694 q 338 708 404 708 q 78 471 78 708 q 188 261 78 311 l 175 239 q 140 151 140 175 q 179 56 140 82 q 94 -24 119 11 q 69 -117 69 -60 q 135 -281 69 -236 q 368 -326 201 -326 m 172 -108 q 188 -44 172 -69 q 250 14 204 -19 l 400 7 q 536 -14 501 7 q 571 -106 571 -35 q 523 -208 571 -178 q 365 -239 475 -239 q 213 -210 254 -239 q 172 -108 172 -182 m 182 471 q 219 588 182 553 q 340 624 256 624 q 461 589 425 624 q 497 472 497 554 q 461 354 497 389 q 340 319 425 319 q 219 354 256 319 q 182 430 182 389 q 182 471 182 471 m 242 1008 l 157 1008 q 217 869 161 925 q 363 814 272 814 q 510 869 454 814 q 569 1008 565 925 l 483 1008 q 450 924 482 956 q 363 892 418 892 q 276 924 308 892 q 242 1008 244 956 "},"Ġ":{"ha":856,"x_min":79,"x_max":764,"o":"m 499 396 l 658 396 l 658 100 q 460 81 557 81 q 246 173 301 81 q 190 480 190 265 q 246 787 190 694 q 461 879 301 879 q 760 850 588 879 l 764 939 l 717 947 q 449 975 578 975 q 160 853 242 975 q 79 480 79 732 q 160 107 79 228 q 451 -14 242 -14 q 764 19 589 -14 l 764 492 l 499 492 l 499 396 m 383 1113 l 486 1113 l 486 1233 l 383 1233 l 383 1113 "},"ġ":{"ha":714,"x_min":69,"x_max":688,"o":"m 368 -326 q 676 -106 676 -326 q 618 57 676 15 q 426 99 560 99 q 267 109 293 99 q 240 163 240 119 q 265 242 240 181 q 333 236 296 236 q 537 288 472 236 q 601 471 601 340 q 556 610 601 564 l 688 607 l 688 696 l 482 690 l 461 694 q 338 708 404 708 q 78 471 78 708 q 188 261 78 311 l 175 239 q 140 151 140 175 q 179 56 140 82 q 94 -24 119 11 q 69 -117 69 -60 q 135 -281 69 -236 q 368 -326 201 -326 m 172 -108 q 188 -44 172 -69 q 250 14 204 -19 l 400 7 q 536 -14 501 7 q 571 -106 571 -35 q 523 -208 571 -178 q 365 -239 475 -239 q 213 -210 254 -239 q 172 -108 172 -182 m 182 471 q 219 588 182 553 q 340 624 256 624 q 461 589 425 624 q 497 472 497 554 q 461 354 497 389 q 340 319 425 319 q 219 354 256 319 q 182 430 182 389 q 182 471 182 471 m 311 846 l 414 846 l 414 967 l 311 967 l 311 846 "},"Ģ":{"ha":856,"x_min":79,"x_max":764,"o":"m 499 396 l 658 396 l 658 100 q 460 81 557 81 q 246 173 301 81 q 190 480 190 265 q 246 787 190 694 q 461 879 301 879 q 760 850 588 879 l 764 939 l 717 947 q 449 975 578 975 q 160 853 242 975 q 79 480 79 732 q 160 107 79 228 q 451 -14 242 -14 q 764 19 589 -14 l 764 492 l 499 492 l 499 396 m 418 -108 l 361 -396 l 451 -396 l 521 -108 l 418 -108 "},"ģ":{"ha":714,"x_min":69,"x_max":688,"o":"m 426 1106 l 336 1106 l 267 818 l 369 818 l 426 1106 m 368 -326 q 676 -106 676 -326 q 618 57 676 15 q 426 99 560 99 q 267 109 293 99 q 240 163 240 119 q 265 242 240 181 q 333 236 296 236 q 537 288 472 236 q 601 471 601 340 q 556 610 601 564 l 688 607 l 688 696 l 482 690 l 461 694 q 338 708 404 708 q 78 471 78 708 q 188 261 78 311 l 175 239 q 140 151 140 175 q 179 56 140 82 q 94 -24 119 11 q 69 -117 69 -60 q 135 -281 69 -236 q 368 -326 201 -326 m 172 -108 q 188 -44 172 -69 q 250 14 204 -19 l 400 7 q 536 -14 501 7 q 571 -106 571 -35 q 523 -208 571 -178 q 365 -239 475 -239 q 213 -210 254 -239 q 172 -108 172 -182 m 182 471 q 219 588 182 553 q 340 624 256 624 q 461 589 425 624 q 497 472 497 554 q 461 354 497 389 q 340 319 425 319 q 219 354 256 319 q 182 430 182 389 q 182 471 182 471 "},"Ĥ":{"ha":938,"x_min":118,"x_max":819,"o":"m 714 0 l 819 0 l 819 961 l 714 961 l 714 531 l 225 531 l 225 961 l 118 961 l 118 0 l 225 0 l 225 435 l 714 435 l 714 0 m 239 1099 l 356 1099 l 471 1210 l 585 1099 l 701 1099 l 515 1286 l 425 1286 l 239 1099 "},"ĥ":{"ha":746,"x_min":100,"x_max":653,"o":"m 204 0 l 204 574 l 231 583 q 400 615 313 615 q 520 562 492 615 q 549 364 549 508 l 549 0 l 653 0 l 653 367 q 605 633 653 558 q 418 708 557 708 q 204 656 315 708 l 204 997 l 100 997 l 100 0 l 204 0 m 164 1075 l 268 1075 l 372 1196 l 474 1075 l 578 1075 l 406 1269 l 335 1269 l 164 1075 "},"Ħ":{"ha":953,"x_min":21,"x_max":940,"o":"m 21 706 l 124 706 l 124 0 l 231 0 l 231 435 l 719 435 l 719 0 l 825 0 l 825 706 l 940 706 l 940 796 l 825 796 l 825 961 l 719 961 l 719 796 l 231 796 l 231 961 l 124 961 l 124 796 l 21 796 l 21 706 m 231 531 l 231 706 l 719 706 l 719 531 l 231 531 "},"ħ":{"ha":746,"x_min":14,"x_max":653,"o":"m 14 806 l 100 806 l 100 0 l 204 0 l 204 574 l 231 583 q 400 615 313 615 q 520 562 492 615 q 549 364 549 508 l 549 0 l 653 0 l 653 367 q 605 633 653 558 q 418 708 557 708 q 204 656 315 708 l 204 806 l 418 806 l 418 897 l 204 897 l 204 997 l 100 997 l 100 897 l 14 897 l 14 806 "},"Ĩ":{"ha":342,"x_min":-69,"x_max":399,"o":"m 118 0 l 225 0 l 225 961 l 118 961 l 118 0 m 278 1115 q 399 1193 333 1115 l 374 1271 l 356 1256 q 278 1207 304 1207 q 177 1244 263 1207 q 60 1282 92 1282 q -7 1257 29 1282 q -69 1201 -43 1232 l -46 1124 l -28 1140 q 58 1190 26 1190 q 161 1153 75 1190 q 278 1115 247 1115 "},"ĩ":{"ha":304,"x_min":-65,"x_max":374,"o":"m 100 694 l 100 0 l 204 0 l 204 694 l 100 694 m 254 850 q 374 921 310 850 l 350 988 l 333 975 q 250 935 281 935 q 163 967 235 935 q 61 999 90 999 q -65 926 4 999 l -40 860 l -22 874 q 64 915 32 915 q 153 883 82 915 q 254 850 225 850 "},"Ī":{"ha":342,"x_min":-42,"x_max":390,"o":"m 118 0 l 225 0 l 225 961 l 118 961 l 118 0 m -42 1128 l 390 1128 l 390 1208 l -42 1208 l -42 1128 "},"ī":{"ha":304,"x_min":-39,"x_max":343,"o":"m 100 694 l 100 0 l 204 0 l 204 694 l 100 694 m -39 867 l 343 867 l 343 949 l -39 949 l -39 867 "},"Ĭ":{"ha":342,"x_min":-36,"x_max":401,"o":"m 118 0 l 225 0 l 225 961 l 118 961 l 118 0 m 96 1200 q 60 1275 61 1229 l -36 1275 q 27 1143 -32 1193 q 182 1093 86 1093 q 338 1143 278 1093 q 401 1275 397 1193 l 304 1275 q 268 1200 303 1229 q 182 1171 233 1171 q 113 1185 131 1171 q 96 1200 96 1200 "},"ĭ":{"ha":304,"x_min":-54,"x_max":358,"o":"m 100 694 l 100 0 l 204 0 l 204 694 l 100 694 m 31 1008 l -54 1008 q 6 869 -50 925 q 152 814 61 814 q 299 869 243 814 q 358 1008 354 925 l 272 1008 q 239 924 271 956 q 152 892 207 892 q 65 924 97 892 q 31 1008 33 956 "},"Į":{"ha":342,"x_min":19,"x_max":257,"o":"m 118 0 l 122 0 q 53 -76 88 -31 q 19 -172 19 -122 q 56 -253 19 -221 q 143 -286 92 -286 q 257 -274 194 -286 l 247 -193 l 176 -201 q 135 -185 151 -201 q 119 -142 119 -168 q 225 0 119 -96 l 225 961 l 118 961 l 118 0 "},"į":{"ha":304,"x_min":-1,"x_max":236,"o":"m 100 0 l 106 0 q -1 -165 -1 -92 q 35 -253 -1 -221 q 122 -286 71 -286 q 236 -274 174 -286 l 226 -193 l 156 -201 q 115 -185 131 -201 q 99 -142 99 -168 q 204 0 99 -94 l 204 694 l 100 694 l 100 0 m 100 851 l 204 851 l 204 972 l 100 972 l 100 851 "},"İ":{"ha":342,"x_min":118,"x_max":225,"o":"m 118 0 l 225 0 l 225 961 l 118 961 l 118 0 m 119 1113 l 222 1113 l 222 1233 l 119 1233 l 119 1113 "},"ı":{"ha":304,"x_min":100,"x_max":204,"o":"m 100 0 l 204 0 l 204 694 l 100 694 l 100 0 "},"Ĵ":{"ha":401,"x_min":3,"x_max":465,"o":"m 25 -100 q 124 -96 86 -100 q 250 -39 218 -85 q 289 132 289 15 l 288 961 l 182 961 l 182 147 q 153 20 182 44 q 25 -4 125 -4 l 25 -100 m 3 1094 l 119 1094 l 235 1206 l 349 1094 l 465 1094 l 279 1282 l 189 1282 l 3 1094 "},"ĵ":{"ha":304,"x_min":-68,"x_max":357,"o":"m 101 18 q 70 -122 101 -78 q -68 -229 39 -167 l -26 -310 q 158 -175 113 -239 q 204 17 204 -111 l 204 694 l 101 694 l 101 18 m -57 822 l 47 822 l 151 943 l 253 822 l 357 822 l 185 1017 l 114 1017 l -57 822 "},"Ķ":{"ha":789,"x_min":118,"x_max":767,"o":"m 225 0 l 225 419 l 385 425 l 640 0 l 767 0 l 476 483 l 751 967 l 628 967 l 382 526 l 225 521 l 225 967 l 118 967 l 118 0 l 225 0 m 367 -108 l 311 -396 l 401 -396 l 469 -108 l 367 -108 "},"ķ":{"ha":665,"x_min":100,"x_max":639,"o":"m 139 -396 l 229 -396 l 299 -108 l 194 -108 l 139 -396 m 204 0 l 204 318 l 314 322 l 521 0 l 639 0 l 403 375 l 629 694 l 511 694 l 313 414 l 204 408 l 204 997 l 100 997 l 100 0 l 204 0 "},"Ĺ":{"ha":665,"x_min":118,"x_max":647,"o":"m 647 0 l 647 103 l 225 103 l 225 967 l 118 967 l 118 0 l 647 0 m 186 1154 l 218 1081 l 522 1201 l 486 1293 l 186 1154 "},"ĺ":{"ha":321,"x_min":72,"x_max":408,"o":"m 108 0 l 213 0 l 213 997 l 108 997 l 108 0 m 72 1175 l 101 1104 l 408 1222 l 372 1311 l 72 1175 "},"Ļ":{"ha":665,"x_min":118,"x_max":647,"o":"m 335 -108 l 278 -396 l 368 -396 l 438 -108 l 335 -108 m 647 0 l 647 96 l 225 96 l 225 961 l 118 961 l 118 0 l 647 0 "},"ļ":{"ha":321,"x_min":46,"x_max":213,"o":"m 108 0 l 213 0 l 213 997 l 108 997 l 108 0 m 103 -108 l 46 -396 l 136 -396 l 206 -108 l 103 -108 "},"Ľ":{"ha":686,"x_min":118,"x_max":647,"o":"m 610 967 l 508 967 l 508 642 l 610 642 l 610 967 m 647 0 l 647 96 l 225 96 l 225 961 l 118 961 l 118 0 l 647 0 "},"ľ":{"ha":375,"x_min":108,"x_max":457,"o":"m 354 949 l 297 661 l 389 661 l 457 949 l 354 949 m 108 0 l 213 0 l 213 997 l 108 997 l 108 0 "},"Ł":{"ha":671,"x_min":-6,"x_max":654,"o":"m 654 0 l 654 96 l 232 96 l 232 453 l 481 628 l 429 699 l 232 561 l 232 961 l 125 961 l 125 486 l -6 394 l 46 322 l 125 378 l 125 0 l 654 0 "},"ł":{"ha":431,"x_min":14,"x_max":417,"o":"m 158 0 l 263 0 l 263 460 l 417 568 l 365 640 l 263 568 l 263 997 l 158 997 l 158 496 l 14 394 l 65 322 l 158 388 l 158 0 "},"Ń":{"ha":939,"x_min":118,"x_max":821,"o":"m 118 0 l 225 0 l 225 867 l 251 867 l 625 0 l 821 0 l 821 961 l 715 961 l 715 94 l 686 94 l 318 961 l 118 961 l 118 0 m 306 1154 l 338 1081 l 642 1201 l 606 1293 l 306 1154 "},"ń":{"ha":746,"x_min":100,"x_max":653,"o":"m 100 0 l 204 0 l 204 564 q 397 615 300 615 q 522 562 493 615 q 550 364 550 508 l 550 0 l 653 0 q 653 367 653 367 q 605 633 653 558 q 418 708 557 708 q 319 693 372 708 q 233 661 265 678 l 203 646 l 203 694 l 100 694 l 100 0 m 222 892 l 251 821 l 558 939 l 522 1028 l 222 892 "},"Ņ":{"ha":939,"x_min":118,"x_max":821,"o":"m 450 -108 l 393 -396 l 483 -396 l 553 -108 l 450 -108 m 118 0 l 225 0 l 225 867 l 251 867 l 625 0 l 821 0 l 821 961 l 715 961 l 715 94 l 686 94 l 318 961 l 118 961 l 118 0 "},"ņ":{"ha":746,"x_min":100,"x_max":653,"o":"m 176 -396 l 268 -396 l 336 -108 l 233 -108 l 176 -396 m 204 0 l 204 564 l 231 576 q 306 602 257 589 q 400 615 356 615 q 522 562 493 615 q 550 364 550 508 l 550 0 l 653 0 l 653 367 q 605 633 653 558 q 418 708 557 708 q 203 646 315 708 l 203 694 l 100 694 l 100 0 l 204 0 "},"Ň":{"ha":939,"x_min":118,"x_max":821,"o":"m 118 0 l 225 0 l 225 867 l 251 867 l 625 0 l 821 0 l 821 961 l 715 961 l 715 94 l 686 94 l 318 961 l 118 961 l 118 0 m 425 1094 l 515 1094 l 701 1282 l 585 1282 l 471 1171 l 356 1282 l 239 1282 l 425 1094 "},"ň":{"ha":746,"x_min":100,"x_max":653,"o":"m 204 0 l 204 564 l 231 576 q 306 602 257 589 q 400 615 356 615 q 522 562 493 615 q 550 364 550 508 l 550 0 l 653 0 l 653 367 q 605 633 653 558 q 418 708 557 708 q 203 646 315 708 l 203 694 l 100 694 l 100 0 l 204 0 m 336 822 l 406 822 l 579 1017 l 475 1017 l 372 896 l 268 1017 l 165 1017 l 336 822 "},"Ŋ":{"ha":939,"x_min":118,"x_max":822,"o":"m 118 0 l 225 0 l 225 867 l 251 867 l 625 0 l 715 0 l 715 -15 q 687 -142 715 -118 q 558 -167 658 -167 l 558 -262 q 657 -258 619 -262 q 783 -203 751 -247 q 822 -31 822 -147 l 821 799 l 821 961 l 715 961 l 715 94 l 686 94 l 318 961 l 118 961 l 118 0 "},"ŋ":{"ha":747,"x_min":100,"x_max":654,"o":"m 203 0 l 203 563 l 233 575 q 315 601 264 589 q 406 614 365 614 q 522 556 493 614 q 550 360 550 499 l 550 -6 q 520 -139 550 -96 q 386 -242 490 -182 l 431 -329 q 611 -194 568 -257 q 654 -3 654 -132 l 654 361 q 605 628 654 549 q 422 708 556 708 q 203 649 324 708 l 203 694 l 100 694 l 100 0 l 203 0 "},"Ō":{"ha":917,"x_min":79,"x_max":839,"o":"m 189 476 q 245 784 189 688 q 458 881 301 881 q 671 783 614 881 q 728 474 728 686 q 673 171 728 261 q 459 81 618 81 q 244 173 300 81 q 189 371 189 265 q 189 476 189 476 m 839 474 q 755 853 839 731 q 458 975 671 975 q 163 852 246 975 q 79 476 79 729 q 161 104 79 222 q 459 -14 243 -14 q 757 101 675 -14 q 839 345 839 217 q 839 474 839 474 m 242 1128 l 674 1128 l 674 1208 l 242 1208 l 242 1128 "},"ō":{"ha":733,"x_min":69,"x_max":664,"o":"m 367 708 q 138 624 206 708 q 69 349 69 539 q 133 72 69 158 q 367 -14 197 -14 q 600 72 536 -14 q 664 349 664 158 q 597 624 664 539 q 448 708 529 708 q 367 708 367 708 m 367 76 q 213 138 250 76 q 176 351 176 199 q 217 560 176 503 q 367 618 258 618 q 517 560 476 618 q 557 350 557 503 q 521 137 557 197 q 426 76 485 76 q 367 76 367 76 m 178 883 l 560 883 l 560 965 l 178 965 l 178 883 "},"Ŏ":{"ha":917,"x_min":79,"x_max":839,"o":"m 189 476 q 245 784 189 688 q 458 881 301 881 q 671 783 614 881 q 728 474 728 686 q 673 171 728 261 q 459 81 618 81 q 244 173 300 81 q 189 371 189 265 q 189 476 189 476 m 839 474 q 755 853 839 731 q 458 975 671 975 q 163 852 246 975 q 79 476 79 729 q 161 104 79 222 q 459 -14 243 -14 q 757 101 675 -14 q 839 345 839 217 q 839 474 839 474 m 374 1200 q 338 1275 339 1229 l 242 1275 q 305 1143 246 1193 q 460 1093 364 1093 q 615 1143 556 1093 q 679 1275 675 1193 l 582 1275 q 546 1200 581 1229 q 460 1171 511 1171 q 391 1185 408 1171 q 374 1200 374 1200 "},"ŏ":{"ha":733,"x_min":69,"x_max":664,"o":"m 367 708 q 138 624 206 708 q 69 349 69 539 q 133 72 69 158 q 367 -14 197 -14 q 600 72 536 -14 q 664 349 664 158 q 597 624 664 539 q 448 708 529 708 q 367 708 367 708 m 367 76 q 213 138 250 76 q 176 351 176 199 q 217 560 176 503 q 367 618 258 618 q 517 560 476 618 q 557 350 557 503 q 521 137 557 197 q 426 76 485 76 q 367 76 367 76 m 249 1008 l 164 1008 q 224 869 168 925 q 370 814 279 814 q 517 869 461 814 q 576 1008 572 925 l 490 1008 q 457 924 489 956 q 370 892 425 892 q 283 924 315 892 q 249 1008 251 956 "},"Ő":{"ha":917,"x_min":79,"x_max":839,"o":"m 189 476 q 245 784 189 688 q 458 881 301 881 q 671 783 614 881 q 728 474 728 686 q 673 171 728 261 q 459 81 618 81 q 244 173 300 81 q 189 371 189 265 q 189 476 189 476 m 839 474 q 755 853 839 731 q 458 975 671 975 q 163 852 246 975 q 79 476 79 729 q 161 104 79 222 q 459 -14 243 -14 q 757 101 675 -14 q 839 345 839 217 q 839 474 839 474 m 483 1090 l 554 1044 l 757 1224 l 681 1272 l 483 1090 m 210 1090 l 281 1046 l 482 1225 l 407 1274 l 210 1090 "},"ő":{"ha":733,"x_min":69,"x_max":674,"o":"m 367 708 q 138 624 206 708 q 69 349 69 539 q 133 72 69 158 q 367 -14 197 -14 q 600 72 536 -14 q 664 349 664 158 q 597 624 664 539 q 448 708 529 708 q 367 708 367 708 m 367 76 q 213 138 250 76 q 176 351 176 199 q 217 560 176 503 q 367 618 258 618 q 517 560 476 618 q 557 350 557 503 q 521 137 557 197 q 426 76 485 76 q 367 76 367 76 m 397 867 l 468 808 l 674 1000 l 599 1060 l 397 867 m 129 867 l 201 808 l 406 1000 l 331 1058 l 129 867 "},"Œ":{"ha":1285,"x_min":79,"x_max":1219,"o":"m 1219 -1 l 1219 103 l 749 103 l 749 443 l 1136 443 l 1136 546 l 749 546 l 749 864 l 1219 864 l 1219 967 l 643 967 q 447 981 557 981 q 160 861 240 981 q 79 481 79 742 q 157 103 79 221 q 447 -14 235 -14 q 646 -1 518 -14 l 1219 -1 m 461 90 q 244 178 299 90 q 190 481 190 267 q 246 786 190 696 q 458 876 301 876 q 643 864 497 876 l 643 100 q 461 90 533 90 "},"œ":{"ha":1190,"x_min":69,"x_max":1128,"o":"m 1060 90 q 833 81 919 81 q 706 135 747 81 q 664 303 664 189 l 1122 303 l 1128 383 q 1058 630 1128 551 q 849 708 989 708 q 613 563 675 708 q 522 674 581 640 q 368 708 463 708 q 138 624 207 708 q 69 349 69 540 q 133 72 69 158 q 368 -14 197 -14 q 521 16 464 -14 q 608 113 578 46 q 833 -14 668 -14 q 1103 8 946 -14 l 1100 93 l 1060 90 m 176 352 q 217 558 176 501 q 364 614 258 614 q 513 553 469 614 q 557 349 557 493 q 520 142 557 204 q 367 79 483 79 q 214 141 251 79 q 176 277 176 203 q 176 352 176 352 m 663 388 q 849 615 663 615 q 983 563 942 615 q 1024 388 1024 511 l 663 388 "},"Ŕ":{"ha":856,"x_min":118,"x_max":789,"o":"m 225 368 l 497 368 l 671 0 l 789 0 l 604 390 q 781 669 781 447 q 703 890 781 819 q 474 961 626 961 l 118 961 l 118 0 l 225 0 l 225 368 m 474 867 q 671 665 671 867 q 475 463 671 463 l 225 463 l 225 867 l 474 867 m 260 1154 l 292 1081 l 596 1201 l 560 1293 l 260 1154 "},"ŕ":{"ha":481,"x_min":93,"x_max":457,"o":"m 100 0 l 204 0 l 204 510 l 239 528 q 335 569 272 546 q 457 604 399 593 l 457 710 q 203 600 324 683 l 203 694 l 100 694 l 100 0 m 93 892 l 122 821 l 429 939 l 393 1028 l 93 892 "},"Ŗ":{"ha":856,"x_min":118,"x_max":789,"o":"m 340 -396 l 431 -396 l 500 -108 l 397 -108 l 340 -396 m 225 368 l 497 368 l 671 0 l 789 0 l 604 390 q 781 669 781 447 q 703 890 781 819 q 474 961 626 961 l 118 961 l 118 0 l 225 0 l 225 368 m 475 463 l 225 463 l 225 867 l 474 867 q 671 665 671 867 q 475 463 671 463 "},"ŗ":{"ha":481,"x_min":44,"x_max":457,"o":"m 100 -108 l 44 -396 l 135 -396 l 203 -108 l 100 -108 m 100 0 l 204 0 l 204 510 l 239 528 q 335 569 272 546 q 457 604 399 593 l 457 710 q 203 600 324 683 l 203 694 l 100 694 l 100 0 "},"Ř":{"ha":856,"x_min":118,"x_max":789,"o":"m 225 368 l 497 368 l 671 0 l 789 0 l 604 390 q 781 669 781 447 q 703 890 781 819 q 474 961 626 961 l 118 961 l 118 0 l 225 0 l 225 368 m 475 463 l 225 463 l 225 867 l 474 867 q 671 665 671 867 q 475 463 671 463 m 372 1099 l 463 1099 l 649 1286 l 532 1286 l 418 1175 l 303 1286 l 186 1286 l 372 1099 "},"ř":{"ha":481,"x_min":36,"x_max":457,"o":"m 100 0 l 204 0 l 204 510 l 239 528 q 335 569 272 546 q 457 604 399 593 l 457 710 q 203 600 324 683 l 203 694 l 100 694 l 100 0 m 207 822 l 276 822 l 450 1017 l 346 1017 l 243 896 l 139 1017 l 36 1017 l 207 822 "},"Ś":{"ha":753,"x_min":67,"x_max":686,"o":"m 383 882 q 657 858 464 882 l 667 949 l 619 956 q 376 976 478 976 q 67 718 67 976 q 135 534 67 589 q 365 444 203 479 q 534 387 489 421 q 579 275 579 353 q 374 82 579 82 q 86 107 275 82 l 75 18 l 125 11 q 379 -12 278 -12 q 686 283 686 -12 q 625 455 686 403 q 417 540 564 507 q 223 605 271 572 q 175 725 175 638 q 383 882 175 882 m 226 1154 l 258 1081 l 563 1201 l 526 1293 l 226 1154 "},"ś":{"ha":646,"x_min":63,"x_max":586,"o":"m 318 615 q 561 593 407 615 l 564 682 l 525 689 q 313 708 397 708 q 134 660 206 708 q 63 510 63 611 q 114 371 63 408 q 288 314 165 333 q 446 273 410 294 q 482 191 482 251 q 440 105 482 131 q 317 79 397 79 q 78 103 236 79 l 72 13 l 114 6 q 317 -14 231 -14 q 517 36 449 -14 q 586 193 586 86 q 535 339 586 300 q 360 399 483 378 q 201 441 236 421 q 167 510 167 461 q 318 615 167 615 m 158 892 l 188 821 l 494 939 l 458 1028 l 158 892 "},"Ŝ":{"ha":753,"x_min":67,"x_max":686,"o":"m 383 882 q 657 858 464 882 l 667 949 l 619 956 q 376 976 478 976 q 67 718 67 976 q 135 534 67 589 q 365 444 203 479 q 534 387 489 421 q 579 275 579 353 q 374 82 579 82 q 86 107 275 82 l 75 18 l 125 11 q 379 -12 278 -12 q 686 283 686 -12 q 625 455 686 403 q 417 540 564 507 q 223 605 271 572 q 175 725 175 638 q 383 882 175 882 m 150 1094 l 267 1094 l 382 1206 l 496 1094 l 613 1094 l 426 1282 l 336 1282 l 150 1094 "},"ŝ":{"ha":646,"x_min":63,"x_max":586,"o":"m 318 615 q 561 593 407 615 l 564 682 l 525 689 q 313 708 397 708 q 134 660 206 708 q 63 510 63 611 q 114 371 63 408 q 288 314 165 333 q 446 273 410 294 q 482 191 482 251 q 440 105 482 131 q 317 79 397 79 q 78 103 236 79 l 72 13 l 114 6 q 317 -14 231 -14 q 517 36 449 -14 q 586 193 586 86 q 535 339 586 300 q 360 399 483 378 q 201 441 236 421 q 167 510 167 461 q 318 615 167 615 m 118 822 l 222 822 l 326 943 l 428 822 l 532 822 l 360 1017 l 289 1017 l 118 822 "},"Ş":{"ha":753,"x_min":67,"x_max":686,"o":"m 569 -176 q 533 -90 569 -112 q 415 -68 497 -68 l 415 -11 q 686 283 686 7 q 625 455 686 403 q 417 540 564 507 q 223 605 271 572 q 175 725 175 638 q 383 882 175 882 q 657 858 464 882 l 667 949 l 619 956 q 376 976 478 976 q 67 718 67 976 q 135 534 67 589 q 365 444 203 479 q 534 387 489 421 q 579 275 579 353 q 374 82 579 82 q 86 107 275 82 l 75 18 l 119 11 q 358 -12 256 -10 l 358 -129 l 417 -129 q 478 -176 478 -129 q 417 -229 478 -229 q 325 -225 379 -229 l 321 -292 l 336 -294 q 440 -301 376 -301 q 569 -176 569 -301 "},"ş":{"ha":646,"x_min":63,"x_max":586,"o":"m 494 -176 q 458 -90 494 -112 q 340 -68 422 -68 l 340 -14 q 524 40 461 -10 q 586 195 586 90 q 535 339 586 300 q 360 399 483 378 q 201 441 236 421 q 167 510 167 461 q 318 615 167 615 q 561 593 407 615 l 564 682 l 525 689 q 313 708 397 708 q 134 660 206 708 q 63 510 63 611 q 114 371 63 408 q 288 314 165 333 q 446 273 410 294 q 482 191 482 251 q 440 105 482 131 q 317 79 397 79 q 78 103 236 79 l 72 13 l 106 7 q 283 -12 203 -10 l 283 -129 l 342 -129 q 403 -176 403 -129 q 342 -229 403 -229 q 250 -225 304 -229 l 246 -292 l 261 -294 q 365 -301 301 -301 q 494 -176 494 -301 "},"Š":{"ha":753,"x_min":67,"x_max":686,"o":"m 383 882 q 657 858 464 882 l 667 949 l 619 956 q 376 976 478 976 q 67 718 67 976 q 135 534 67 589 q 365 444 203 479 q 534 387 489 421 q 579 275 579 353 q 374 82 579 82 q 86 107 275 82 l 75 18 l 125 11 q 379 -12 278 -12 q 686 283 686 -12 q 625 455 686 403 q 417 540 564 507 q 223 605 271 572 q 175 725 175 638 q 383 882 175 882 m 347 1099 l 438 1099 l 624 1286 l 507 1286 l 393 1175 l 278 1286 l 161 1286 l 347 1099 "},"š":{"ha":646,"x_min":63,"x_max":586,"o":"m 318 615 q 561 593 407 615 l 564 682 l 525 689 q 313 708 397 708 q 134 660 206 708 q 63 510 63 611 q 114 371 63 408 q 288 314 165 333 q 446 273 410 294 q 482 191 482 251 q 440 105 482 131 q 317 79 397 79 q 78 103 236 79 l 72 13 l 114 6 q 317 -14 231 -14 q 517 36 449 -14 q 586 193 586 86 q 535 339 586 300 q 360 399 483 378 q 201 441 236 421 q 167 510 167 461 q 318 615 167 615 m 300 822 l 369 822 l 543 1017 l 439 1017 l 336 896 l 232 1017 l 129 1017 l 300 822 "},"Ţ":{"ha":0,"x_min":0,"x_max":0,"o":""},"ţ":{"ha":488,"x_min":38,"x_max":469,"o":"m 460 604 l 460 694 l 239 694 l 239 907 l 136 907 l 136 694 l 38 694 l 38 604 l 136 604 l 136 239 q 178 38 136 90 q 328 -15 219 -15 q 469 0 376 -15 l 463 86 l 339 78 q 256 115 274 78 q 239 272 239 153 l 239 604 l 460 604 m 367 -176 q 331 -90 367 -112 q 213 -68 294 -68 l 213 1 l 156 1 l 156 -129 l 214 -129 q 275 -176 275 -129 q 214 -229 275 -229 q 122 -225 176 -229 l 118 -292 l 133 -294 q 238 -301 174 -301 q 367 -176 367 -301 "},"Ť":{"ha":731,"x_min":18,"x_max":713,"o":"m 18 865 l 314 865 l 314 0 l 419 0 l 419 865 l 713 865 l 713 961 l 18 961 l 18 865 m 321 1099 l 411 1099 l 597 1286 l 481 1286 l 367 1175 l 251 1286 l 135 1286 l 321 1099 "},"ť":{"ha":600,"x_min":38,"x_max":614,"o":"m 460 600 l 460 694 l 240 694 l 240 907 l 136 907 l 136 694 l 38 694 l 38 600 l 136 600 l 136 239 q 178 38 136 92 q 329 -15 219 -15 q 469 0 378 -15 l 464 90 l 340 83 q 257 120 274 83 q 240 276 240 157 l 240 600 l 460 600 m 614 967 l 514 967 l 514 642 l 614 642 l 614 967 "},"Ŧ":{"ha":735,"x_min":21,"x_max":715,"o":"m 21 865 l 317 865 l 317 508 l 90 508 l 90 417 l 317 417 l 317 0 l 422 0 l 422 417 l 650 417 l 650 508 l 422 508 l 422 865 l 715 865 l 715 961 l 21 961 l 21 865 "},"ŧ":{"ha":492,"x_min":40,"x_max":472,"o":"m 463 600 l 463 694 l 243 694 l 243 907 l 139 907 l 139 694 l 40 694 l 40 600 l 139 600 l 139 433 l 63 433 l 63 351 l 139 351 l 139 239 q 181 38 139 92 q 332 -15 222 -15 q 472 0 381 -15 l 467 90 l 343 83 q 260 120 276 83 q 243 276 243 157 l 243 351 l 429 351 l 429 433 l 243 433 l 243 600 l 463 600 "},"Ũ":{"ha":894,"x_min":111,"x_max":783,"o":"m 218 289 l 218 961 l 111 961 l 111 292 q 195 58 111 131 q 446 -14 279 -14 q 698 58 613 -14 q 783 292 783 131 l 783 961 l 678 961 l 678 289 q 619 130 678 179 q 443 81 560 81 q 218 289 218 81 m 558 1115 q 681 1193 615 1115 l 656 1271 l 639 1256 q 558 1207 586 1207 q 460 1244 544 1207 q 343 1282 375 1282 q 275 1257 311 1282 q 213 1201 239 1232 l 236 1124 l 254 1140 q 339 1190 308 1190 q 443 1153 357 1190 q 558 1115 529 1115 "},"ũ":{"ha":738,"x_min":93,"x_max":638,"o":"m 638 694 l 533 694 l 533 131 q 348 79 446 79 q 224 131 250 79 q 197 333 197 182 l 197 694 l 93 694 q 93 332 93 332 q 140 60 93 133 q 328 -14 186 -14 q 424 1 372 -14 q 504 33 475 17 l 533 49 l 533 0 l 638 0 l 638 694 m 465 850 q 585 921 521 850 l 561 988 l 544 975 q 461 935 492 935 q 374 967 446 935 q 272 999 301 999 q 146 926 215 999 l 171 860 l 189 874 q 275 915 243 915 q 365 883 293 915 q 465 850 436 850 "},"Ū":{"ha":894,"x_min":111,"x_max":783,"o":"m 218 289 l 218 961 l 111 961 l 111 292 q 195 58 111 131 q 446 -14 279 -14 q 698 58 613 -14 q 783 292 783 131 l 783 961 l 678 961 l 678 289 q 619 130 678 179 q 443 81 560 81 q 218 289 218 81 m 233 1128 l 665 1128 l 665 1208 l 233 1208 l 233 1128 "},"ū":{"ha":738,"x_min":93,"x_max":638,"o":"m 638 694 l 533 694 l 533 131 q 348 79 446 79 q 224 131 250 79 q 197 333 197 182 l 197 694 l 93 694 q 93 332 93 332 q 140 60 93 133 q 328 -14 186 -14 q 424 1 372 -14 q 504 33 475 17 l 533 49 l 533 0 l 638 0 l 638 694 m 175 867 l 557 867 l 557 949 l 175 949 l 175 867 "},"Ŭ":{"ha":894,"x_min":111,"x_max":783,"o":"m 218 289 l 218 961 l 111 961 l 111 292 q 195 58 111 131 q 446 -14 279 -14 q 698 58 613 -14 q 783 292 783 131 l 783 961 l 678 961 l 678 289 q 619 130 678 179 q 443 81 560 81 q 218 289 218 81 m 328 1275 l 232 1275 q 295 1143 236 1193 q 450 1093 354 1093 q 606 1143 546 1093 q 669 1275 665 1193 l 572 1275 q 536 1200 571 1229 q 451 1171 501 1171 q 365 1200 400 1171 q 328 1275 329 1229 "},"ŭ":{"ha":738,"x_min":93,"x_max":638,"o":"m 638 694 l 533 694 l 533 131 q 348 79 446 79 q 224 131 250 79 q 197 333 197 182 l 197 694 l 93 694 q 93 332 93 332 q 140 60 93 133 q 328 -14 186 -14 q 424 1 372 -14 q 504 33 475 17 l 533 49 l 533 0 l 638 0 l 638 694 m 239 1008 l 154 1008 q 214 869 158 925 q 360 814 269 814 q 507 869 451 814 q 567 1008 563 925 l 481 1008 q 447 924 479 956 q 360 892 415 892 q 274 924 306 892 q 239 1008 242 956 "},"Ů":{"ha":894,"x_min":111,"x_max":783,"o":"m 218 289 l 218 961 l 111 961 l 111 292 q 195 58 111 131 q 446 -14 279 -14 q 698 58 613 -14 q 783 292 783 131 l 783 961 l 678 961 l 678 289 q 619 130 678 179 q 443 81 560 81 q 218 289 218 81 m 450 1321 q 331 1282 378 1321 q 285 1174 285 1243 q 331 1067 285 1106 q 449 1028 376 1028 q 568 1067 522 1028 q 614 1174 614 1106 q 568 1282 614 1243 q 486 1321 522 1321 q 450 1321 450 1321 m 364 1175 q 450 1249 364 1249 q 513 1229 490 1249 q 536 1175 536 1210 q 513 1120 536 1140 q 450 1100 490 1100 q 387 1120 410 1100 q 364 1175 364 1140 "},"ů":{"ha":738,"x_min":93,"x_max":638,"o":"m 638 694 l 533 694 l 533 131 q 348 79 446 79 q 224 131 250 79 q 197 333 197 182 l 197 694 l 93 694 q 93 332 93 332 q 140 60 93 133 q 328 -14 186 -14 q 424 1 372 -14 q 504 33 475 17 l 533 49 l 533 0 l 638 0 l 638 694 m 265 793 q 368 751 307 751 q 470 793 429 751 q 511 896 511 835 q 469 999 511 957 q 367 1040 428 1040 q 265 999 307 1040 q 224 896 224 957 q 244 814 224 835 q 265 793 265 793 m 368 974 q 422 951 400 974 q 444 895 444 928 q 422 840 444 863 q 368 817 400 817 q 314 840 336 817 q 292 895 292 863 q 314 951 292 928 q 352 974 336 974 q 368 974 368 974 "},"Ű":{"ha":894,"x_min":111,"x_max":783,"o":"m 218 289 l 218 961 l 111 961 l 111 292 q 195 58 111 131 q 446 -14 279 -14 q 698 58 613 -14 q 783 292 783 131 l 783 961 l 678 961 l 678 289 q 619 130 678 179 q 443 81 560 81 q 218 289 218 81 m 489 1090 l 560 1044 l 763 1224 l 686 1272 l 489 1090 m 215 1090 l 286 1046 l 488 1225 l 413 1274 l 215 1090 "},"ű":{"ha":738,"x_min":93,"x_max":694,"o":"m 638 694 l 533 694 l 533 131 q 348 79 446 79 q 224 131 250 79 q 197 333 197 182 l 197 694 l 93 694 q 93 332 93 332 q 140 60 93 133 q 328 -14 186 -14 q 424 1 372 -14 q 504 33 475 17 l 533 49 l 533 0 l 638 0 l 638 694 m 418 867 l 489 808 l 694 1000 l 619 1060 l 418 867 m 150 867 l 222 808 l 426 1000 l 351 1058 l 150 867 "},"Ų":{"ha":896,"x_min":111,"x_max":783,"o":"m 218 289 l 218 961 l 111 961 l 111 292 q 195 58 111 131 q 443 -14 279 -14 l 464 -14 q 376 -161 376 -101 q 413 -253 376 -221 q 500 -286 449 -286 q 614 -274 551 -286 l 604 -193 l 535 -201 q 494 -185 510 -201 q 478 -142 478 -168 q 561 -12 478 -101 l 574 0 q 783 292 783 47 l 783 961 l 678 961 l 678 289 q 619 130 678 179 q 443 81 560 81 q 218 289 218 81 "},"ų":{"ha":738,"x_min":93,"x_max":668,"o":"m 533 694 l 533 131 l 506 118 q 432 92 479 106 q 343 79 385 79 q 224 131 250 79 q 197 333 197 182 l 197 694 l 93 694 l 93 332 q 140 60 93 133 q 328 -14 186 -14 q 533 44 425 -14 l 533 0 l 539 0 q 466 -76 501 -31 q 431 -172 431 -122 q 467 -253 431 -221 q 554 -286 503 -286 q 668 -274 606 -286 l 658 -193 l 588 -201 q 547 -185 563 -201 q 531 -144 531 -168 q 567 -73 531 -119 q 638 0 603 -26 l 638 694 l 533 694 "},"Ŵ":{"ha":1231,"x_min":42,"x_max":1188,"o":"m 42 961 l 238 0 l 433 0 l 615 821 l 797 0 l 993 0 l 1188 961 l 1078 961 l 914 94 l 874 94 l 678 953 l 553 953 l 357 94 l 317 94 l 153 961 l 42 961 m 385 1094 l 501 1094 l 617 1206 l 731 1094 l 847 1094 l 661 1282 l 571 1282 l 385 1094 "},"ŵ":{"ha":1058,"x_min":43,"x_max":1015,"o":"m 43 694 l 208 0 l 382 0 l 529 543 l 676 0 l 850 0 l 1015 694 l 911 694 l 772 90 l 749 90 l 583 681 l 475 681 l 310 90 l 288 90 l 147 694 l 43 694 m 324 822 l 428 822 l 532 943 l 633 822 l 738 822 l 565 1017 l 494 1017 l 324 822 "},"Ŷ":{"ha":747,"x_min":14,"x_max":733,"o":"m 428 0 l 428 404 l 733 961 l 613 961 l 374 511 l 135 961 l 14 961 l 321 404 l 321 0 l 428 0 m 144 1099 l 261 1099 l 376 1210 l 490 1099 l 607 1099 l 421 1286 l 331 1286 l 144 1099 "},"ŷ":{"ha":671,"x_min":35,"x_max":638,"o":"m 35 694 l 232 0 l 335 0 l 244 -308 l 349 -308 l 638 694 l 533 694 l 358 90 l 313 90 l 139 694 l 35 694 m 132 822 l 236 822 l 340 943 l 442 822 l 546 822 l 374 1017 l 303 1017 l 132 822 "},"Ÿ":{"ha":747,"x_min":14,"x_max":733,"o":"m 428 0 l 428 404 l 733 961 l 613 961 l 374 511 l 135 961 l 14 961 l 321 404 l 321 0 l 428 0 m 181 1122 l 282 1122 l 282 1247 l 181 1247 l 181 1122 m 464 1122 l 564 1122 l 564 1247 l 464 1247 l 464 1122 "},"Ź":{"ha":744,"x_min":60,"x_max":685,"o":"m 60 867 l 561 867 l 561 836 l 60 122 l 60 -1 l 685 -1 l 685 94 l 182 94 l 182 122 l 685 836 l 685 961 l 60 961 l 60 867 m 213 1154 l 244 1081 l 549 1201 l 513 1293 l 213 1154 "},"ź":{"ha":632,"x_min":58,"x_max":574,"o":"m 58 694 l 58 601 l 447 601 l 58 93 l 58 0 l 574 0 l 574 93 l 185 93 l 574 601 l 574 694 l 58 694 m 157 892 l 186 821 l 493 939 l 457 1028 l 157 892 "},"Ż":{"ha":744,"x_min":60,"x_max":685,"o":"m 60 867 l 561 867 l 561 836 l 60 122 l 60 -1 l 685 -1 l 685 94 l 182 94 l 182 122 l 685 836 l 685 961 l 60 961 l 60 867 m 319 1113 l 422 1113 l 422 1233 l 319 1233 l 319 1113 "},"ż":{"ha":632,"x_min":58,"x_max":574,"o":"m 58 694 l 58 601 l 447 601 l 58 93 l 58 0 l 574 0 l 574 93 l 185 93 l 574 601 l 574 694 l 58 694 m 264 846 l 367 846 l 367 967 l 264 967 l 264 846 "},"Ž":{"ha":744,"x_min":60,"x_max":685,"o":"m 60 867 l 561 867 l 561 836 l 60 122 l 60 -1 l 685 -1 l 685 94 l 182 94 l 182 122 l 685 836 l 685 961 l 60 961 l 60 867 m 338 1099 l 428 1099 l 614 1286 l 497 1286 l 383 1175 l 268 1286 l 151 1286 l 338 1099 "},"ž":{"ha":632,"x_min":58,"x_max":574,"o":"m 58 601 l 447 601 l 58 93 l 58 0 l 574 0 l 574 93 l 185 93 l 574 601 l 574 694 l 58 694 l 58 601 m 285 822 l 354 822 l 528 1017 l 424 1017 l 321 896 l 217 1017 l 114 1017 l 285 822 "},"ƒ":{"ha":778,"x_min":54,"x_max":613,"o":"m 390 -76 l 390 508 l 592 508 l 592 597 l 390 597 l 390 703 q 493 863 390 863 q 611 857 549 863 l 613 944 l 590 947 q 474 957 513 957 q 324 883 363 957 q 286 672 286 808 l 286 597 l 199 597 l 199 508 l 286 508 l 286 -75 q 261 -198 286 -162 q 188 -233 236 -233 q 56 -226 139 -233 l 54 -315 l 75 -318 q 190 -326 138 -326 q 344 -272 297 -326 q 390 -76 390 -217 "},"Ǻ":{"ha":828,"x_min":33,"x_max":794,"o":"m 414 1182 q 295 1143 342 1182 q 249 1038 249 1104 q 289 932 249 972 l 33 0 l 139 0 l 208 247 l 619 247 l 689 0 l 794 0 l 538 933 q 578 1039 578 974 q 532 1143 578 1104 q 450 1182 486 1182 q 414 1182 414 1182 m 378 869 l 450 869 l 596 343 l 232 343 l 378 869 m 236 1283 l 268 1210 l 572 1331 l 536 1422 l 236 1283 m 328 1036 q 414 1110 328 1110 q 477 1090 454 1110 q 500 1036 500 1071 q 477 981 500 1001 q 414 961 454 961 q 351 981 374 961 q 328 1036 328 1001 "},"ǻ":{"ha":696,"x_min":56,"x_max":671,"o":"m 590 485 q 537 654 590 600 q 365 708 483 708 q 94 678 247 708 l 99 599 l 142 603 q 372 617 261 617 q 456 586 425 617 q 486 485 486 556 l 486 425 l 268 404 q 107 345 158 393 q 56 196 56 297 q 106 40 56 94 q 251 -14 156 -14 q 501 42 376 -14 q 667 -14 557 -14 l 671 68 q 590 129 594 78 l 590 485 m 163 201 q 190 290 163 260 q 281 326 218 321 l 486 346 l 486 117 l 454 106 q 268 74 363 74 q 163 201 163 74 m 239 793 q 342 751 281 751 q 444 793 403 751 q 485 896 485 835 q 443 999 485 957 q 341 1040 401 1040 q 239 999 281 1040 q 197 896 197 957 q 218 814 197 835 q 239 793 239 793 m 342 974 q 396 951 374 974 q 418 895 418 928 q 396 840 418 863 q 342 817 374 817 q 288 840 310 817 q 265 895 265 863 q 288 951 265 928 q 326 974 310 974 q 342 974 342 974 m 183 1144 l 213 1074 l 519 1192 l 483 1281 l 183 1144 "},"Ǽ":{"ha":1217,"x_min":28,"x_max":1151,"o":"m 567 0 l 1151 0 l 1151 101 l 672 101 l 672 444 l 1068 444 l 1068 546 l 672 546 l 672 865 l 1151 865 l 1151 967 l 339 967 l 28 0 l 138 0 l 218 243 l 567 243 l 567 0 m 417 865 l 568 865 l 567 346 l 247 346 l 417 865 m 574 1154 l 606 1081 l 910 1201 l 874 1293 l 574 1154 "},"ǽ":{"ha":1117,"x_min":56,"x_max":1054,"o":"m 986 90 q 759 81 844 81 q 632 135 674 81 q 590 303 590 189 l 1049 303 l 1054 383 q 985 630 1054 551 q 770 708 915 708 q 558 607 625 708 q 371 708 513 708 q 97 688 263 708 l 101 594 l 144 597 q 365 608 274 608 q 486 482 486 608 l 486 425 l 307 408 q 113 352 169 394 q 56 203 56 310 q 103 41 56 96 q 244 -14 151 -14 q 511 42 390 -14 l 556 61 q 747 -14 622 -14 q 1029 8 872 -14 l 1026 93 l 986 90 m 261 76 q 163 201 163 76 q 191 289 163 260 q 281 324 219 318 l 483 340 q 510 128 483 199 q 407 97 489 117 q 261 76 325 76 m 590 388 q 637 561 590 507 q 776 615 683 615 q 909 563 868 615 q 950 388 950 511 l 590 388 m 403 892 l 432 821 l 739 939 l 703 1028 l 403 892 "},"Ǿ":{"ha":919,"x_min":81,"x_max":840,"o":"m 460 -14 q 758 101 676 -14 q 840 476 840 217 q 711 900 840 792 l 793 1076 l 713 1110 l 635 946 q 460 975 564 975 q 164 852 247 975 q 81 476 81 729 q 112 210 81 314 q 217 50 143 106 l 135 -125 l 214 -161 l 293 10 q 460 -14 364 -14 m 460 881 q 593 854 540 881 l 263 150 q 190 459 190 231 q 247 784 190 688 q 460 881 303 881 m 460 81 q 336 100 383 81 l 663 797 q 729 485 729 708 q 674 171 729 261 q 460 81 619 81 m 290 1154 l 322 1081 l 626 1201 l 590 1293 l 290 1154 "},"ǿ":{"ha":733,"x_min":69,"x_max":664,"o":"m 367 708 q 138 624 206 708 q 69 356 69 539 q 97 139 69 219 q 193 21 125 58 l 132 -131 l 201 -156 l 261 -3 q 367 -14 310 -14 q 600 72 536 -14 q 664 356 664 158 q 539 671 664 601 l 599 815 l 529 842 l 469 697 q 367 708 421 708 m 367 618 q 436 610 407 618 l 235 111 q 188 197 200 140 q 176 378 176 254 q 217 560 176 503 q 367 618 258 618 m 367 76 q 296 83 321 76 q 499 579 499 579 q 557 362 557 526 q 521 137 557 197 q 367 76 485 76 m 200 892 l 229 821 l 536 939 l 500 1028 l 200 892 "},"Ș":{"ha":753,"x_min":67,"x_max":686,"o":"m 346 -108 l 290 -396 l 381 -396 l 449 -108 l 346 -108 m 383 882 q 657 858 464 882 l 667 949 l 619 956 q 376 976 478 976 q 67 718 67 976 q 135 534 67 589 q 365 444 203 479 q 534 387 489 421 q 579 275 579 353 q 374 82 579 82 q 86 107 275 82 l 75 18 l 125 11 q 379 -12 278 -12 q 686 283 686 -12 q 625 455 686 403 q 417 540 564 507 q 223 605 271 572 q 175 725 175 638 q 383 882 175 882 "},"ș":{"ha":646,"x_min":63,"x_max":586,"o":"m 210 -108 l 154 -396 l 244 -396 l 314 -108 l 210 -108 m 318 615 q 561 593 407 615 l 564 682 l 525 689 q 313 708 397 708 q 134 660 206 708 q 63 510 63 611 q 114 371 63 408 q 288 314 165 333 q 446 273 410 294 q 482 191 482 251 q 440 105 482 131 q 317 79 397 79 q 78 103 236 79 l 72 13 l 114 6 q 317 -14 231 -14 q 517 36 449 -14 q 586 193 586 86 q 535 339 586 300 q 360 399 483 378 q 201 441 236 421 q 167 510 167 461 q 318 615 167 615 "},"Ț":{"ha":731,"x_min":18,"x_max":713,"o":"m 342 -108 l 286 -396 l 376 -396 l 446 -108 l 342 -108 m 18 865 l 314 865 l 314 0 l 419 0 l 419 865 l 713 865 l 713 961 l 18 961 l 18 865 "},"ț":{"ha":488,"x_min":38,"x_max":469,"o":"m 196 -108 l 140 -396 l 231 -396 l 300 -108 l 196 -108 m 460 604 l 460 694 l 239 694 l 239 907 l 136 907 l 136 694 l 38 694 l 38 604 l 136 604 l 136 239 q 178 38 136 90 q 328 -15 219 -15 q 469 0 376 -15 l 463 86 l 339 78 q 256 115 274 78 q 239 272 239 153 l 239 604 l 460 604 "},"ˆ":{"ha":328,"x_min":-26,"x_max":388,"o":"m -26 822 l 78 822 l 182 943 l 283 822 l 388 822 l 215 1017 l 144 1017 l -26 822 "},"ˇ":{"ha":328,"x_min":-24,"x_max":390,"o":"m 147 822 l 217 822 l 390 1017 l 286 1017 l 183 896 l 79 1017 l -24 1017 l 147 822 "},"˘":{"ha":328,"x_min":-24,"x_max":389,"o":"m 61 1008 l -24 1008 q 36 869 -19 925 q 183 814 92 814 q 329 869 274 814 q 389 1008 385 925 l 303 1008 q 269 924 301 956 q 183 892 238 892 q 96 924 128 892 q 61 1008 64 956 "},"˙":{"ha":328,"x_min":113,"x_max":215,"o":"m 113 846 l 215 846 l 215 967 l 113 967 l 113 846 "},"˚":{"ha":328,"x_min":25,"x_max":313,"o":"m 67 793 q 169 751 108 751 q 272 793 231 751 q 313 896 313 835 q 271 999 313 957 q 169 1040 229 1040 q 67 999 108 1040 q 25 896 25 957 q 46 814 25 835 q 67 793 67 793 m 169 974 q 224 951 201 974 q 246 895 246 928 q 224 840 246 863 q 169 817 201 817 q 115 840 138 817 q 93 895 93 863 q 115 951 93 928 q 153 974 138 974 q 169 974 169 974 "},"˛":{"ha":625,"x_min":261,"x_max":499,"o":"m 363 -142 q 461 1 363 -96 l 376 11 l 347 -14 q 290 -85 319 -40 q 261 -175 261 -129 q 297 -253 261 -221 q 385 -286 333 -286 q 499 -274 436 -286 l 489 -193 l 419 -201 q 378 -185 394 -201 q 363 -142 363 -168 "},"˜":{"ha":328,"x_min":-42,"x_max":397,"o":"m 278 850 q 397 921 333 850 l 374 988 l 356 975 q 275 935 304 935 q 186 967 258 935 q 85 999 114 999 q -42 926 28 999 l -17 860 l 1 874 q 88 915 56 915 q 177 883 106 915 q 278 850 249 850 "},"˝":{"ha":328,"x_min":-71,"x_max":474,"o":"m 197 867 l 268 808 l 474 1000 l 399 1060 l 197 867 m -71 867 l 1 808 l 206 1000 l 131 1058 l -71 867 "},"π":{"ha":778,"x_min":31,"x_max":736,"o":"m 499 214 q 542 38 499 81 q 724 -6 586 -6 l 724 85 q 626 110 650 85 q 603 214 603 136 l 603 607 q 736 626 697 610 l 736 714 l 714 708 q 554 694 644 694 l 228 694 q 31 674 113 694 l 31 586 l 47 590 q 181 604 106 604 l 138 0 l 243 0 l 282 604 l 499 604 l 499 214 "},"Ẁ":{"ha":1231,"x_min":42,"x_max":1188,"o":"m 42 961 l 238 0 l 433 0 l 615 821 l 797 0 l 993 0 l 1188 961 l 1078 961 l 914 94 l 874 94 l 678 953 l 553 953 l 357 94 l 317 94 l 153 961 l 42 961 m 481 1293 l 444 1201 l 749 1081 l 781 1154 l 481 1293 "},"ẁ":{"ha":1058,"x_min":43,"x_max":1015,"o":"m 43 694 l 208 0 l 382 0 l 529 543 l 676 0 l 850 0 l 1015 694 l 911 694 l 772 90 l 749 90 l 583 681 l 475 681 l 310 90 l 288 90 l 147 694 l 43 694 m 368 1028 l 332 939 l 639 821 l 668 892 l 368 1028 "},"Ẃ":{"ha":1231,"x_min":42,"x_max":1188,"o":"m 42 961 l 238 0 l 433 0 l 615 821 l 797 0 l 993 0 l 1188 961 l 1078 961 l 914 94 l 874 94 l 678 953 l 553 953 l 357 94 l 317 94 l 153 961 l 42 961 m 461 1154 l 493 1081 l 797 1201 l 761 1293 l 461 1154 "},"ẃ":{"ha":1058,"x_min":43,"x_max":1015,"o":"m 43 694 l 208 0 l 382 0 l 529 543 l 676 0 l 850 0 l 1015 694 l 911 694 l 772 90 l 749 90 l 583 681 l 475 681 l 310 90 l 288 90 l 147 694 l 43 694 m 385 892 l 414 821 l 721 939 l 685 1028 l 385 892 "},"Ẅ":{"ha":1231,"x_min":42,"x_max":1188,"o":"m 42 961 l 238 0 l 433 0 l 615 821 l 797 0 l 993 0 l 1188 961 l 1078 961 l 914 94 l 874 94 l 678 953 l 553 953 l 357 94 l 317 94 l 153 961 l 42 961 m 422 1122 l 524 1122 l 524 1247 l 422 1247 l 422 1122 m 706 1122 l 806 1122 l 806 1247 l 706 1247 l 706 1122 "},"ẅ":{"ha":1058,"x_min":43,"x_max":1015,"o":"m 43 694 l 208 0 l 382 0 l 529 543 l 676 0 l 850 0 l 1015 694 l 911 694 l 772 90 l 749 90 l 583 681 l 475 681 l 310 90 l 288 90 l 147 694 l 43 694 m 342 863 l 442 863 l 442 988 l 342 988 l 342 863 m 619 863 l 721 863 l 721 988 l 619 988 l 619 863 "},"ẫ":{"ha":696,"x_min":56,"x_max":671,"o":"m 590 485 q 537 654 590 600 q 365 708 483 708 q 94 678 247 708 l 99 599 l 142 603 q 372 617 261 617 q 456 586 425 617 q 486 485 486 556 l 486 425 l 268 404 q 107 345 158 393 q 56 196 56 297 q 106 40 56 94 q 251 -14 156 -14 q 501 42 376 -14 q 667 -14 557 -14 l 671 68 q 590 129 594 78 l 590 485 m 163 201 q 190 290 163 260 q 281 326 218 321 l 486 346 l 486 117 l 454 106 q 268 74 363 74 q 163 201 163 74 m 121 781 l 225 781 l 329 901 l 431 781 l 535 781 l 363 975 l 292 975 l 121 781 m 415 1022 q 535 1093 471 1022 l 511 1160 l 494 1147 q 411 1107 442 1107 q 324 1139 396 1107 q 222 1171 251 1171 q 96 1099 165 1171 l 121 1032 l 139 1046 q 225 1088 193 1088 q 315 1055 243 1088 q 415 1022 386 1022 "},"Ằ":{"ha":825,"x_min":33,"x_max":792,"o":"m 33 0 l 139 0 l 210 243 l 613 243 l 685 1 l 792 1 l 531 967 l 297 967 l 33 0 m 378 868 l 447 868 l 589 346 l 235 346 l 378 868 m 289 1228 l 193 1228 q 256 1096 197 1146 q 411 1046 315 1046 q 567 1096 507 1046 q 631 1228 626 1146 l 533 1228 q 497 1153 532 1182 q 412 1124 463 1124 q 326 1153 361 1124 q 289 1228 290 1182 m 203 1503 l 167 1414 l 474 1296 l 503 1367 l 203 1503 "},"ễ":{"ha":703,"x_min":69,"x_max":639,"o":"m 357 81 q 217 135 258 81 q 175 303 175 189 l 633 303 l 639 383 q 569 630 639 551 q 360 708 500 708 q 69 343 69 708 q 132 73 69 160 q 344 -14 194 -14 q 615 8 457 -14 l 613 93 l 572 90 q 357 81 428 81 m 535 388 l 174 388 q 360 615 175 615 q 494 563 453 615 q 535 388 535 511 m 150 781 l 254 781 l 358 901 l 460 781 l 564 781 l 392 975 l 321 975 l 150 781 m 449 1022 q 568 1093 504 1022 l 544 1160 l 528 1147 q 444 1107 475 1107 q 357 1139 429 1107 q 256 1171 285 1171 q 129 1099 199 1171 l 154 1032 l 172 1046 q 258 1088 226 1088 q 348 1055 276 1088 q 449 1022 419 1022 "},"ỗ":{"ha":733,"x_min":69,"x_max":664,"o":"m 367 708 q 138 624 206 708 q 69 349 69 539 q 133 72 69 158 q 367 -14 197 -14 q 600 72 536 -14 q 664 349 664 158 q 597 624 664 539 q 448 708 529 708 q 367 708 367 708 m 367 76 q 213 138 250 76 q 176 351 176 199 q 217 560 176 503 q 367 618 258 618 q 517 560 476 618 q 557 350 557 503 q 521 137 557 197 q 426 76 485 76 q 367 76 367 76 m 153 781 l 257 781 l 361 901 l 463 781 l 567 781 l 394 975 l 324 975 l 153 781 m 442 1022 q 561 1093 497 1022 l 538 1160 l 519 1147 q 439 1107 468 1107 q 350 1139 422 1107 q 249 1171 278 1171 q 122 1099 192 1171 l 147 1032 l 165 1046 q 251 1088 219 1088 q 341 1055 269 1088 q 442 1022 413 1022 "},"Ỳ":{"ha":747,"x_min":14,"x_max":733,"o":"m 428 0 l 428 404 l 733 961 l 613 961 l 374 511 l 135 961 l 14 961 l 321 404 l 321 0 l 428 0 m 231 1293 l 194 1201 l 499 1081 l 531 1154 l 231 1293 "},"ỳ":{"ha":671,"x_min":35,"x_max":638,"o":"m 35 694 l 232 0 l 335 0 l 244 -308 l 349 -308 l 638 694 l 533 694 l 358 90 l 313 90 l 139 694 l 35 694 m 181 1028 l 144 939 l 451 821 l 481 892 l 181 1028 "},"Ỹ":{"ha":738,"x_min":11,"x_max":726,"o":"m 424 0 l 424 414 l 726 967 l 606 967 l 369 533 l 131 967 l 11 967 l 317 415 l 317 0 l 424 0 m 463 1122 q 582 1193 518 1122 l 558 1260 l 542 1247 q 458 1207 489 1207 q 371 1239 443 1207 q 269 1271 299 1271 q 143 1199 213 1271 l 168 1132 l 186 1146 q 272 1188 240 1188 q 362 1155 290 1188 q 463 1122 433 1122 "},"ỹ":{"ha":671,"x_min":35,"x_max":638,"o":"m 35 694 l 232 0 l 333 0 l 244 -308 l 349 -308 l 638 694 l 533 694 l 358 100 l 313 100 l 139 694 l 35 694 m 428 850 q 547 921 483 850 l 524 988 l 506 975 q 425 935 454 935 q 336 967 408 935 q 235 999 264 999 q 108 926 178 999 l 133 860 l 151 874 q 238 915 206 915 q 327 883 256 915 q 428 850 399 850 "},"–":{"ha":876,"x_min":92,"x_max":786,"o":"m 92 418 l 92 326 l 786 326 l 786 418 l 92 418 "},"—":{"ha":1571,"x_min":92,"x_max":1481,"o":"m 92 418 l 92 326 l 1481 326 l 1481 418 l 92 418 "},"‘":{"ha":304,"x_min":71,"x_max":242,"o":"m 242 983 l 160 983 l 71 679 l 181 679 l 242 983 "},"’":{"ha":300,"x_min":74,"x_max":244,"o":"m 74 679 l 156 679 l 244 983 l 135 983 l 74 679 "},"‚":{"ha":303,"x_min":94,"x_max":129,"o":"m 129 31 l 113 31 l 94 -29 l 117 -29 l 129 31 "},"“":{"ha":518,"x_min":71,"x_max":454,"o":"m 454 983 l 372 983 l 283 679 l 393 679 l 454 983 m 242 983 l 160 983 l 71 679 l 181 679 l 242 983 "},"”":{"ha":524,"x_min":74,"x_max":467,"o":"m 74 681 l 156 681 l 244 985 l 135 985 l 74 681 m 296 681 l 378 681 l 467 985 l 357 985 l 296 681 "},"„":{"ha":499,"x_min":31,"x_max":413,"o":"m 201 156 l 119 156 l 31 -149 l 140 -149 l 201 156 m 413 156 l 331 156 l 242 -149 l 351 -149 l 413 156 "},"†":{"ha":664,"x_min":47,"x_max":617,"o":"m 47 603 l 281 603 l 286 -106 l 378 -106 l 383 603 l 617 603 l 617 694 l 383 694 l 383 961 l 281 961 l 281 694 l 47 694 l 47 603 "},"‡":{"ha":724,"x_min":76,"x_max":647,"o":"m 310 -106 l 414 -106 l 414 161 l 647 161 l 647 251 l 414 251 l 414 603 l 646 603 l 646 694 l 414 694 l 414 961 l 310 961 l 310 694 l 76 694 l 76 603 l 310 603 l 310 251 l 76 251 l 76 161 l 310 161 l 310 -106 "},"•":{"ha":657,"x_min":154,"x_max":501,"o":"m 154 147 l 501 147 l 501 544 l 154 544 l 154 147 "},"…":{"ha":1007,"x_min":93,"x_max":914,"o":"m 93 0 l 207 0 l 207 158 l 93 158 l 93 0 m 447 0 l 560 0 l 560 158 l 447 158 l 447 0 m 800 0 l 914 0 l 914 158 l 800 158 l 800 0 "},"‰":{"ha":1160,"x_min":53,"x_max":1110,"o":"m 258 831 q 274 739 274 803 q 258 644 274 675 q 206 614 243 614 q 136 739 136 614 q 152 831 136 801 q 206 860 168 860 q 251 845 243 860 q 258 831 258 831 m 229 -6 l 294 -25 l 581 924 l 514 946 l 229 -6 m 53 737 q 206 543 53 543 q 318 592 278 543 q 358 739 358 640 q 206 931 358 931 q 53 834 53 931 q 53 737 53 737 m 447 183 q 488 35 447 85 q 600 -14 528 -14 q 713 35 672 -14 q 753 182 753 85 q 600 374 753 374 q 447 183 447 374 m 531 183 q 547 274 531 246 q 600 303 563 303 q 653 274 638 303 q 669 182 669 244 q 600 57 669 57 q 531 183 531 57 m 806 183 q 846 35 806 85 q 958 -14 886 -14 q 1069 35 1029 -14 q 1110 182 1110 85 q 958 374 1110 374 q 806 183 806 374 m 889 183 q 905 274 889 246 q 958 303 921 303 q 1011 274 996 303 q 1026 182 1026 246 q 1011 88 1026 118 q 958 57 996 57 q 889 183 889 57 "},"‹":{"ha":418,"x_min":63,"x_max":325,"o":"m 325 478 l 325 585 l 63 386 l 63 303 l 325 93 l 325 201 l 153 347 l 325 478 "},"›":{"ha":418,"x_min":93,"x_max":356,"o":"m 265 353 l 93 207 l 93 99 l 356 308 l 356 392 l 93 590 l 93 483 l 265 353 "},"⁄":{"ha":0,"x_min":-311,"x_max":289,"o":"m -311 39 l -257 4 l 289 881 l 233 917 l -311 39 "},"⁰":{"ha":389,"x_min":29,"x_max":358,"o":"m 29 881 q 71 703 29 756 q 194 650 113 650 q 317 702 276 650 q 358 880 358 754 q 317 1058 358 1006 q 194 1111 276 1111 q 71 1058 113 1111 q 29 943 29 1006 q 29 881 29 881 m 268 879 q 250 763 268 796 q 194 731 232 731 q 138 763 157 731 q 119 879 119 796 q 138 997 119 963 q 194 1031 156 1031 q 251 997 233 1031 q 268 921 268 963 q 268 879 268 879 "},"⁴":{"ha":389,"x_min":33,"x_max":354,"o":"m 229 664 l 317 664 l 317 731 l 354 731 l 354 811 l 317 811 l 317 935 l 236 935 l 229 811 l 125 811 l 226 1097 l 129 1097 l 33 806 l 33 731 l 229 731 l 229 664 "},"⁵":{"ha":389,"x_min":53,"x_max":349,"o":"m 203 863 q 258 797 258 863 q 193 731 258 731 q 60 743 136 731 l 53 671 l 75 667 q 201 653 138 653 q 349 803 349 653 q 219 939 349 939 q 139 918 181 939 l 146 1019 l 335 1019 l 335 1097 l 75 1097 l 61 850 l 131 842 q 203 863 167 863 "},"⁶":{"ha":389,"x_min":40,"x_max":354,"o":"m 129 929 q 214 1032 131 1032 q 331 1022 261 1032 l 336 1097 l 317 1100 q 211 1111 256 1111 q 81 1054 122 1111 q 40 874 40 997 q 201 650 40 650 q 313 692 272 650 q 354 806 354 733 q 213 949 354 949 q 129 929 188 949 m 129 850 q 149 863 129 851 q 210 874 168 874 q 265 801 265 874 q 199 729 265 729 q 129 850 133 729 "},"⁷":{"ha":389,"x_min":42,"x_max":328,"o":"m 42 1011 l 228 1011 l 228 982 l 86 669 l 182 651 l 328 990 l 328 1097 l 42 1097 l 42 1011 "},"⁸":{"ha":389,"x_min":31,"x_max":358,"o":"m 38 993 q 97 893 38 915 q 31 782 31 864 q 194 650 31 650 q 358 788 358 650 q 292 892 358 872 q 351 993 351 910 q 194 1111 351 1111 q 38 993 38 1111 m 121 785 q 175 856 121 839 l 214 856 q 268 788 268 839 q 194 725 268 725 q 121 785 121 725 m 264 983 q 214 924 264 940 l 175 924 q 125 985 125 942 q 194 1036 125 1036 q 264 983 264 1036 "},"⁹":{"ha":389,"x_min":36,"x_max":353,"o":"m 261 831 q 172 731 258 731 q 58 740 121 731 l 53 667 l 72 663 q 181 650 131 650 q 312 706 271 650 q 353 879 353 761 q 189 1111 353 1111 q 78 1071 119 1111 q 36 960 36 1031 q 72 851 36 889 q 176 814 108 814 q 261 831 201 814 m 125 960 q 192 1032 125 1032 q 264 906 263 1032 q 188 886 217 886 q 142 907 160 886 q 125 960 125 928 "},"₀":{"ha":389,"x_min":29,"x_max":358,"o":"m 29 78 q 71 -100 29 -47 q 194 -153 113 -153 q 317 -101 276 -153 q 358 77 358 -49 q 317 256 358 203 q 194 308 276 308 q 71 256 113 308 q 29 140 29 203 q 29 78 29 78 m 268 76 q 250 -40 268 -7 q 194 -72 232 -72 q 138 -40 157 -72 q 119 76 119 -7 q 138 194 119 160 q 194 228 156 228 q 251 194 233 228 q 268 118 268 160 q 268 76 268 76 "},"₁":{"ha":389,"x_min":64,"x_max":288,"o":"m 288 294 l 204 294 l 64 197 l 104 132 l 199 197 l 199 -139 l 288 -139 l 288 294 "},"₂":{"ha":389,"x_min":54,"x_max":344,"o":"m 344 -139 l 344 -58 l 167 -58 l 254 26 q 319 102 300 68 q 339 182 339 136 q 206 308 339 308 q 58 292 140 308 l 61 213 l 179 225 q 247 174 247 225 q 176 58 247 126 l 54 -62 l 54 -139 l 344 -139 "},"₃":{"ha":389,"x_min":42,"x_max":346,"o":"m 189 308 q 47 294 129 308 l 53 218 l 181 228 q 243 181 243 228 q 226 138 243 156 q 190 119 210 119 l 100 119 l 100 46 l 190 46 q 256 -13 256 46 q 191 -72 256 -72 q 47 -61 126 -72 l 42 -139 l 67 -142 q 199 -153 139 -153 q 346 -18 346 -153 q 330 56 346 33 q 281 90 314 79 q 335 192 335 121 q 189 308 335 308 "},"₄":{"ha":389,"x_min":43,"x_max":364,"o":"m 239 -139 l 326 -139 l 326 -72 l 364 -72 l 364 8 l 326 8 l 326 132 l 246 132 l 239 8 l 135 8 l 236 294 l 139 294 l 43 3 l 43 -72 l 239 -72 l 239 -139 "},"₅":{"ha":389,"x_min":42,"x_max":338,"o":"m 192 60 q 247 -6 247 60 q 182 -72 247 -72 q 49 -60 125 -72 l 42 -132 l 64 -136 q 190 -150 126 -150 q 338 0 338 -150 q 208 136 338 136 q 128 115 169 136 l 135 217 l 324 217 l 324 294 l 64 294 l 50 47 l 119 39 q 192 60 156 60 "},"₆":{"ha":389,"x_min":36,"x_max":350,"o":"m 125 126 q 210 229 126 229 q 326 219 257 229 l 332 294 l 311 297 q 207 308 251 308 q 77 251 118 308 q 36 71 36 194 q 197 -153 36 -153 q 309 -111 268 -153 q 350 3 350 -69 q 208 146 350 146 q 125 126 183 146 m 125 47 q 144 60 125 49 q 206 71 164 71 q 261 -1 261 71 q 195 -74 261 -74 q 125 47 129 -74 "},"₇":{"ha":389,"x_min":53,"x_max":339,"o":"m 53 208 l 239 208 l 239 179 l 97 -133 l 193 -151 l 339 188 l 339 294 l 53 294 l 53 208 "},"₈":{"ha":389,"x_min":29,"x_max":357,"o":"m 36 190 q 96 90 36 113 q 29 -21 29 61 q 193 -153 29 -153 q 357 -15 357 -153 q 290 89 357 69 q 350 190 350 107 q 193 308 350 308 q 36 190 36 308 m 119 -18 q 174 53 119 36 l 213 53 q 267 -15 267 36 q 193 -78 267 -78 q 119 -18 119 -78 m 263 181 q 213 121 263 138 l 174 121 q 124 182 124 139 q 193 233 124 233 q 263 181 263 233 "},"₉":{"ha":389,"x_min":33,"x_max":350,"o":"m 258 28 q 169 -72 256 -72 q 56 -62 118 -72 l 50 -136 l 69 -140 q 178 -153 128 -153 q 309 -97 268 -153 q 350 76 350 -42 q 186 308 350 308 q 75 268 117 308 q 33 157 33 228 q 69 49 33 86 q 174 11 106 11 q 258 28 199 11 m 122 157 q 189 229 122 229 q 261 103 260 229 q 185 83 214 83 q 140 104 157 83 q 122 157 122 125 "},"€":{"ha":778,"x_min":42,"x_max":713,"o":"m 42 525 l 125 525 q 124 458 124 503 q 125 393 124 413 l 42 393 l 42 308 l 129 308 q 222 65 147 144 q 460 -14 296 -14 q 713 15 575 -14 l 708 103 q 468 78 583 78 q 301 133 353 78 q 236 308 249 188 l 635 308 l 635 393 l 231 393 l 231 456 q 232 525 231 503 l 635 525 l 635 610 l 238 610 q 302 785 250 731 q 468 839 354 839 q 708 815 582 839 l 713 901 q 460 931 576 931 q 222 853 296 931 q 131 610 147 775 l 42 610 l 42 525 "},"™":{"ha":940,"x_min":126,"x_max":835,"o":"m 126 806 l 236 806 l 236 461 l 313 461 l 313 806 l 404 806 l 404 875 l 126 875 l 126 806 m 447 460 l 519 460 l 519 771 l 611 481 l 671 481 l 763 771 l 763 460 l 835 460 l 835 875 l 738 875 l 639 586 l 547 875 l 447 875 l 447 460 "},"Ω":{"ha":778,"x_min":63,"x_max":715,"o":"m 233 79 l 63 79 l 63 -12 l 336 -12 l 336 67 l 300 139 q 228 317 264 210 q 192 494 192 424 q 229 760 192 683 q 388 836 267 836 q 548 759 510 836 q 586 494 586 682 q 540 294 586 424 q 442 67 494 164 l 442 -12 l 715 -12 l 715 79 l 543 79 l 581 144 q 658 322 619 211 q 696 522 696 432 q 629 834 696 736 q 389 932 563 932 q 149 834 215 932 q 82 522 82 736 q 233 79 82 344 "},"∂":{"ha":778,"x_min":64,"x_max":694,"o":"m 369 1011 q 241 989 314 1011 q 126 942 168 967 l 132 857 l 164 872 q 252 904 197 889 q 351 919 307 919 q 526 835 475 919 q 583 556 578 751 l 551 567 q 356 597 456 597 q 142 517 219 597 q 64 292 64 438 q 144 67 64 147 q 383 -12 225 -12 q 618 113 542 -12 q 694 504 694 239 q 616 890 694 769 q 369 1011 538 1011 m 585 464 q 533 173 583 267 q 379 79 483 79 q 224 135 275 79 q 174 292 174 192 q 224 449 174 392 q 374 506 274 506 q 585 464 474 506 "},"∆":{"ha":778,"x_min":74,"x_max":703,"o":"m 703 0 l 703 78 l 482 917 l 294 917 l 74 79 l 74 0 l 703 0 m 406 826 l 594 92 l 181 92 l 369 826 l 406 826 "},"∏":{"ha":778,"x_min":42,"x_max":736,"o":"m 531 -226 l 638 -226 l 638 953 l 736 953 l 736 1047 l 42 1047 l 42 953 l 139 953 l 139 -226 l 244 -226 l 244 953 l 531 953 l 531 -226 "},"∑":{"ha":778,"x_min":61,"x_max":714,"o":"m 61 1046 l 61 908 l 432 428 l 61 -86 l 61 -226 l 714 -226 l 714 -131 l 172 -131 l 172 -96 l 529 388 l 529 464 l 172 921 l 172 951 l 714 951 l 714 1046 l 61 1046 "},"−":{"ha":778,"x_min":92,"x_max":686,"o":"m 92 301 l 686 301 l 686 396 l 92 396 l 92 301 "},"√":{"ha":778,"x_min":6,"x_max":788,"o":"m 6 525 l 88 525 l 274 -189 l 443 -189 l 788 1079 l 682 1079 l 367 -99 l 353 -99 l 175 619 l 6 619 l 6 525 "},"∞":{"ha":778,"x_min":42,"x_max":736,"o":"m 215 168 q 319 199 282 168 q 389 313 357 231 q 461 203 421 239 q 563 168 501 168 q 736 406 736 168 q 693 582 736 521 q 565 643 650 643 q 461 607 501 643 q 389 496 421 571 q 316 607 357 571 q 213 643 275 643 q 85 582 128 643 q 42 406 42 521 q 215 168 42 168 m 225 550 q 256 546 240 550 q 294 517 271 542 q 351 406 317 490 q 347 397 350 403 q 331 356 347 394 q 294 289 315 317 q 225 261 272 261 q 142 406 142 261 q 225 550 142 550 m 553 261 q 522 265 538 261 q 483 294 507 269 q 426 406 461 321 q 453 465 440 440 q 467 491 457 474 q 483 516 476 508 q 506 537 490 524 q 553 550 521 550 q 636 406 636 550 q 553 261 636 261 "},"∫":{"ha":778,"x_min":128,"x_max":650,"o":"m 439 -8 l 439 799 q 464 947 439 904 q 541 989 489 989 q 646 982 593 989 l 650 1071 l 631 1075 q 522 1083 582 1083 q 378 1020 424 1083 q 333 800 333 957 l 333 -7 q 310 -131 333 -96 q 236 -165 286 -165 q 132 -160 186 -165 l 128 -249 l 250 -260 q 392 -203 346 -260 q 439 -8 439 -147 "},"≈":{"ha":778,"x_min":89,"x_max":688,"o":"m 526 375 q 688 450 600 375 l 674 535 l 650 519 q 528 471 576 471 q 397 513 501 471 q 251 556 293 556 q 89 482 176 556 l 106 396 l 129 411 q 251 461 201 461 q 383 418 278 461 q 526 375 489 375 m 526 118 q 688 193 600 118 l 674 278 l 650 261 q 528 214 576 214 q 397 256 501 214 q 251 299 293 299 q 89 225 176 299 l 106 139 l 129 156 q 189 188 153 172 q 251 204 225 204 q 383 161 278 204 q 526 118 489 118 "},"≠":{"ha":778,"x_min":89,"x_max":689,"o":"m 89 429 l 381 429 l 310 268 l 89 268 l 89 172 l 268 172 l 190 -6 l 275 -39 l 367 172 l 689 172 l 689 268 l 408 268 l 478 429 l 689 429 l 689 525 l 519 525 l 600 707 l 517 740 l 422 525 l 89 525 l 89 429 "},"≤":{"ha":778,"x_min":90,"x_max":678,"o":"m 678 586 l 678 690 l 90 489 l 90 394 l 678 186 l 678 292 l 213 444 l 678 586 m 90 31 l 678 31 l 678 125 l 90 125 l 90 31 "},"≥":{"ha":778,"x_min":99,"x_max":686,"o":"m 564 444 l 99 292 l 99 186 l 686 394 l 686 489 l 99 690 l 99 586 l 564 444 m 686 125 l 99 125 l 99 31 l 686 31 l 686 125 "},"◊":{"ha":778,"x_min":75,"x_max":703,"o":"m 594 457 l 457 367 l 469 367 l 703 457 l 469 550 l 456 550 l 594 457 m 75 457 l 308 367 l 319 367 l 183 457 l 321 550 l 308 550 l 75 457 m 404 332 l 457 367 l 319 367 l 372 332 l 404 332 m 321 550 l 456 550 l 404 585 l 372 585 l 321 550 "},"":{"ha":304,"x_min":-68,"x_max":204,"o":"m 101 18 q 70 -122 101 -78 q -68 -229 39 -167 l -26 -310 q 158 -175 113 -239 q 204 17 204 -111 l 204 694 l 101 694 l 101 18 "},"":{"ha":236,"x_min":32,"x_max":192,"o":"m 32 -396 l 122 -396 l 192 -108 l 89 -108 l 32 -396 "}}}
